<?xml version="1.0" encoding="utf-8"?>
<!-- Generator: Adobe Illustrator 27.9.0, SVG Export Plug-In . SVG Version: 6.00 Build 0)  -->
<svg version="1.1" id="Camada_1" xmlns="http://www.w3.org/2000/svg" xmlns:xlink="http://www.w3.org/1999/xlink" x="0px" y="0px"
	 viewBox="0 0 53.6 54.9" style="enable-background:new 0 0 53.6 54.9;" xml:space="preserve">
<style type="text/css">
	.st0{fill:#FAC709;}
</style>
<g>
	<circle class="st0" cx="26.7" cy="27.3" r="25"/>
	<g>
		<path d="M49.7,30.5c-2.2,12.3-13.4,21-26,19.3C11.4,47.9,2.1,36.4,3.8,23.9C5.7,11.4,18,3,30.3,5.1c12.4,2.1,20.6,13.6,19.1,26
			c-0.4,3.3,3.6,2.4,3.9-0.3c1.3-11.3-4-22.7-14.3-28C29-2.3,16.7-0.3,8.5,7.4C-9.2,24.1,2.6,55.9,27.6,54.8
			C40.7,54.2,51,44,53.2,31.5C53.8,28.4,50.1,27.4,49.7,30.5z"/>
	</g>
</g>
<g>
	<g>
		<polygon points="38.4,27.6 28.3,17.3 28.2,22.4 18,22.3 17.9,32.5 28.1,32.6 28.1,37.7 		"/>
		<g>
			<path d="M38.8,27.3c-3.4-3.4-6.7-6.9-10.1-10.3c-0.2-0.2-0.9-0.1-0.9,0.3c0,1.3-0.2,2.7-0.1,4c0.1,0.8-0.2,1,0.3,0.7
				c-0.2,0.2-1.3,0-1.5,0c-2.8,0-5.6-0.1-8.5-0.1c-0.2,0-0.5,0.1-0.5,0.4c0,3.4-0.1,6.8-0.1,10.2c0,0.2,0.2,0.4,0.4,0.4
				c2.8,0,5.6,0.1,8.5,0.1c0.3,0,1.2-0.1,1.4,0c0,0-0.2-0.4-0.1,0.7c0,1.3,0,2.7,0,4c0,0.5,0.6,0.4,0.9,0.2
				c3.4-3.4,6.9-6.7,10.3-10.1c0.4-0.4-0.5-0.7-0.8-0.4c-3.4,3.4-6.9,6.7-10.3,10.1c0.3,0.1,0.6,0.1,0.9,0.2c0-1.7,0-3.4,0-5.1
				c0-0.2-0.2-0.4-0.4-0.4c-2.8,0-5.6-0.1-8.5-0.1c-0.3,0-1.2,0.1-1.4,0c-0.3-0.2,0.3,0.7,0.1-0.3c-0.2-1.4,0-3,0-4.4
				c0-1.5-0.1-3,0-4.4c0.1-1-0.5-0.2-0.2-0.3c0.3-0.2,1.1,0,1.4,0c2.8,0,5.6,0.1,8.5,0.1c0.2,0,0.5-0.1,0.5-0.4
				c0-1.7,0.1-3.4,0.1-5.1c-0.3,0.1-0.6,0.2-0.9,0.3c3.4,3.4,6.7,6.9,10.1,10.3C38.4,28.2,39.2,27.7,38.8,27.3z"/>
		</g>
	</g>
</g>
</svg>
