<?xml version="1.0" encoding="utf-8"?>
<!-- Generator: Adobe Illustrator 27.9.0, SVG Export Plug-In . SVG Version: 6.00 Build 0)  -->
<svg version="1.1" id="Camada_1" xmlns="http://www.w3.org/2000/svg" xmlns:xlink="http://www.w3.org/1999/xlink" x="0px" y="0px"
	 viewBox="0 0 54.6 53.8" style="enable-background:new 0 0 54.6 53.8;" xml:space="preserve">
<style type="text/css">
	.st0{fill:#FAC709;}
</style>
<g>
	<circle class="st0" cx="27.3" cy="27" r="25"/>
	<g>
		<path d="M45,12.3c7.4,9.7,6.3,23.7-2.9,31.8c-9.5,8.5-24.4,7.7-32.4-2.3C2,32.3,3.6,17.9,12.6,10C22.2,1.3,36.6,2.5,45,12.3
			c1.7,2,5.8,0.7,3.7-1.8C41.4,1.9,29.8-2.2,18.9,1.2S0,14.8,0,26.2c-0.2,24.4,31.5,37.2,47.9,18.9c8.9-9.8,8.5-24.3,0.7-34.7
			C47.1,8.4,43,9.6,45,12.3z"/>
	</g>
</g>
<g>
	<g>
		<polygon points="25.9,37.3 25.9,32.2 36.1,32.1 36,21.9 25.8,22 25.7,16.9 15.6,27.2 		"/>
		<g>
			<path d="M26.3,37.3c0-1.3,0-2.7,0-4c0-1.1,0.1-0.7-0.2-0.6c0.3-0.2,1.2,0,1.5,0c2.8,0,5.6-0.1,8.5-0.1c0.2,0,0.4-0.3,0.4-0.5
				c0-3.4-0.1-6.8-0.1-10.2c0-0.2-0.1-0.4-0.4-0.4c-2.8,0-5.6,0.1-8.5,0.1c-0.3,0-1.2,0.2-1.4,0c-0.1-0.1,0.1,0.6,0-0.7
				c-0.1-1.3-0.1-2.7-0.1-4c0-0.3-0.3-0.6-0.6-0.4c-3.4,3.4-6.7,6.9-10.1,10.3c-0.2,0.2-0.3,0.6-0.1,0.8c3.4,3.4,6.9,6.7,10.3,10.1
				c0.4,0.4,0.9-0.4,0.6-0.8c-2.2-2.1-4.4-4.3-6.6-6.4c-0.9-0.9-2-2.4-3.1-3.1c-0.7-0.4-0.3-1-0.7,0.1c0.1-0.2,0.7-0.8,0.9-0.9
				c2.7-2.1,5.1-5.2,7.5-7.7c0.4-0.4,0.9-1,1.3-1.4c0.5-0.5-0.3-0.9-0.2-0.2c0.2,1.5,0.1,3.1,0.1,4.6c0,0.2,0.1,0.4,0.4,0.4
				c2.8,0,5.6-0.1,8.5-0.1c0.3,0,1.1-0.2,1.4,0c0.4,0.2-0.3-0.9-0.1,0.2c0.3,1.4,0,3,0,4.4s0.2,3,0,4.4c-0.2,1.2,0.5,0,0.1,0.1
				s-1.1,0-1.4,0c-2.8,0-5.6,0.1-8.5,0.1c-0.2,0-0.4,0.3-0.4,0.5c0,1.7,0,3.4,0,5.1C25.6,38,26.3,37.8,26.3,37.3z"/>
		</g>
	</g>
</g>
</svg>
