<?xml version="1.0" encoding="utf-8"?>
<!-- Generator: Adobe Illustrator 27.9.0, SVG Export Plug-In . SVG Version: 6.00 Build 0)  -->
<svg version="1.1" id="Camada_1" xmlns="http://www.w3.org/2000/svg" xmlns:xlink="http://www.w3.org/1999/xlink" x="0px" y="0px"
	 viewBox="0 0 54.9 53.6" style="enable-background:new 0 0 54.9 53.6;" xml:space="preserve">
<style type="text/css">
	.st0{fill:#FAC709;}
</style>
<g>
	<circle class="st0" cx="27.4" cy="26.9" r="25"/>
	<g>
		<path d="M27.6,3.8C40.1,4.2,50,14.1,50,26.8c0,12.4-10.2,23.1-22.7,23.2C14.8,50.1,4.8,39.4,4.9,27.1C4.9,14.6,15.1,4.2,27.6,3.8
			c3.2-0.1,2.6-3.9-0.3-3.8C16.1,0.3,5.9,6.4,1.7,17.1C-2.4,27.8,1.1,40.3,10,47.5c19.1,15.6,49.6-0.8,44.3-25.8
			C51.6,9,40.1,0.3,27.3,0C24-0.1,24.7,3.8,27.6,3.8z"/>
	</g>
</g>
<g>
	<g>
		<g>
			<polygon points="24,36.6 24,29.3 30.8,29.3 30.8,36.6 37.1,36.6 37.1,26 38.5,27.1 40.6,24.4 27.4,14.3 14.2,24.4 16.3,27.1 
				17.7,26 17.7,36.6 			"/>
			<g>
				<path d="M24.4,36.7c0-1.8-0.5-4.3,0-6c0.5-1.6-0.5-0.5,0.3-0.9c0.6-0.3,2.1,0,2.8,0c0.8,0,2.1-0.3,2.8,0c0.6,0.2,0-0.9,0.1,0.8
					c0.1,2,0,4,0,6c0,0.3,0.1,0.6,0.5,0.6c2.1,0,4.2,0,6.3,0c0.2,0,0.3-0.3,0.3-0.4c0-2.1,0-4.2,0-6.3c0-1-0.2-2.3,0-3.3
					c0.2-1.1-0.4-0.5,0.8,0.4c0.1,0.1,0.3,0.2,0.5,0c0.7-0.9,1.4-1.8,2.1-2.7c0.2-0.2,0.2-0.6,0-0.8c-4.4-3.4-8.8-6.7-13.2-10.1
					c-0.1-0.1-0.3-0.2-0.4-0.1c-4.4,3.4-8.8,6.7-13.2,10.1c-0.2,0.2-0.3,0.5-0.1,0.8c0.7,0.9,1.4,1.8,2.1,2.7
					c0.1,0.2,0.3,0.3,0.5,0.1c1-0.8,0.6-1.6,0.8-0.9c0.3,1,0,2.6,0,3.6c0,2.1,0,4.2,0,6.3c0,0.3,0.1,0.6,0.5,0.6c2.1,0,4.2,0,6.3,0
					c0.5,0,0.4-1-0.1-1c-1.4,0-2.7,0-4.1,0c-2.3,0-1.7,0.8-1.8-0.7c-0.2-3.1,0-6.2,0-9.3c0-0.3-0.3-0.7-0.6-0.5
					c-1.1,0.9-0.6,0.8-1.4,0.5c-0.5-0.2-1.3-2.6-1.6-1.3c0.1-0.8,3.2-2.5,3.8-2.9c2-1.6,4.1-3.1,6.1-4.7c0.5-0.4,2.8-2.4,3-2.4
					c0.3,0,2.4,1.9,3,2.4c2,1.6,4.1,3.1,6.1,4.7c0.6,0.5,3.6,2.1,3.8,2.9c-0.3-1.3-0.9,1-1.5,1.3c-0.9,0.3-0.4,0.5-1.5-0.4
					c-0.3-0.2-0.6,0-0.6,0.3c0,1.9,0,3.9,0,5.8c0,1,0.3,2.8,0,3.8c-0.4,1.3,0.7,0.2-0.7,0.6c-1.1,0.2-2.4-0.1-3.5,0
					c-0.3,0-1.4,0.1-1.6,0c0.2,0.1,0.5,0.6,0.3-0.1c-0.7-1.7,0-4.8,0-6.7c0-0.3-0.1-0.6-0.5-0.6c-2.3,0-4.5,0-6.8,0
					c-0.2,0-0.3,0.3-0.3,0.4c0,2.4,0,4.9,0,7.3C23.7,37.1,24.4,37.4,24.4,36.7z"/>
			</g>
		</g>
	</g>
</g>
</svg>
