<?xml version="1.0" encoding="utf-8"?>
<!-- Generator: Adobe Illustrator 27.9.0, SVG Export Plug-In . SVG Version: 6.00 Build 0)  -->
<svg version="1.1" id="Camada_1" xmlns="http://www.w3.org/2000/svg" xmlns:xlink="http://www.w3.org/1999/xlink" x="0px" y="0px"
	 viewBox="0 0 53.8 52.9" style="enable-background:new 0 0 53.8 52.9;" xml:space="preserve">
<style type="text/css">
	.st0{fill:#CD2E18;}
</style>
<g>
	<g>
		<g>
			<circle class="st0" cx="27" cy="26.4" r="25"/>
			<g>
				<path d="M15.3,6.2c11.3-6.4,25.7-2.8,31.9,9c5.8,11,1.9,24.9-8.6,31.4c-11.1,6.8-25.9,2.5-31.9-9C0.8,26.5,4.9,12.9,15.3,6.2
					c2.1-1.3-0.9-3.5-2.5-2.5C3.3,9.8-1.9,20.9,0.6,32C3,42.9,12.4,51,23.3,52.6C47.7,56,63.7,26.4,46.6,8.3
					C37.9-1,23.7-2.4,12.8,3.8C10.6,5,13.7,7.2,15.3,6.2z"/>
			</g>
		</g>
	</g>
</g>
<g>
	<g>
		<g>
			<g>
				<path d="M27,40c-7.5,0-13.6-6.1-13.6-13.6S19.5,12.8,27,12.8s13.6,6.1,13.6,13.6S34.5,40,27,40z M27,14.4c-6.6,0-12,5.4-12,12
					s5.4,12,12,12s12-5.4,12-12S33.6,14.4,27,14.4z"/>
				<g>
					<path d="M27.2,39.6c-5.8-0.3-11-3.7-12.8-9.4c-2.6-8.3,3.8-16.9,12.4-16.9c6.3,0,11.8,4.4,13,10.6c1.6,8.3-4.5,15.3-12.8,15.7
						c-0.5,0-0.8,0.9-0.2,0.9c7.6-0.4,14.1-6.2,14.1-14.1c0-7.6-6.3-14-13.9-14c-7.1,0-13.4,5.6-14.1,12.7
						c-0.9,8.4,5.7,15,13.8,15.4C27.3,40.5,27.7,39.6,27.2,39.6z"/>
					<path d="M27.1,14c-6.8,0.4-12.4,5.5-12.5,12.5c-0.1,6.7,5.6,12.4,12.3,12.4c6.3,0,11.8-5,12.5-11.2
						C40.2,20.3,34.4,14.4,27.1,14c-0.4,0-0.8,0.8-0.3,0.9c5.1,0.3,9.5,3.1,11.2,8c2.5,7.3-3.3,15-10.8,15
						C12.5,38,11.9,15.7,27,14.8C27.4,14.8,27.7,13.9,27.1,14z"/>
				</g>
			</g>
		</g>
		<g>
			<g>
				<g>
					<path d="M30.2,28.2L33,29c-0.4,1.4-1.1,2.6-2,3.4c-1,0.7-2.2,1.1-3.7,1.1c-1.8,0-3.4-0.6-4.6-1.9c-1.2-1.2-1.8-3-1.8-5.3
						s0.6-4.1,1.8-5.4c1.2-1.3,2.9-1.9,4.7-1.9s3,0.5,4.1,1.4c0.6,0.6,1.1,1.4,1.4,2.5l-2.8,0.7c-0.1-0.7-0.5-1.3-1-1.7
						c-0.5-0.4-1.2-0.6-1.9-0.6c-1.1,0-1.9,0.4-2.5,1.1s-1,2-1,3.6c0,1.8,0.4,3,1,3.9c0.6,0.7,1.4,1.2,2.5,1.2
						c0.7,0,1.4-0.2,1.9-0.7C29.8,30,30,29.3,30.2,28.2z"/>
					<g>
						<path d="M30,28.7c0.6,0.2,2,0.3,2.4,0.7c1.1,1.2-3.3,3.6-4.6,3.7c-2.5,0.2-5-1.2-5.9-3.5c-1-2.4-1-6.4,1-8.3
							c1.9-1.8,5.1-2.4,7.4-1c0.7,0.4,1.6,1.3,1.9,2.2c0.1,0.5,0.6-0.1-0.3,0.3c-0.1,0.1-1.3,0.4-1.5,0.4c-0.5-0.2,0.2,0-0.3-0.5
							c-0.7-0.7-0.8-1.2-1.9-1.6c-4.6-1.5-5.8,4.8-4.7,7.9c1.4,4,6.1,3,6.9-0.8c0.1-0.6-0.7-0.4-0.8,0.1c-0.4,1.9-2.2,3-4,1.8
							c-1.2-0.8-1.5-1.8-1.7-3.2c-0.1-0.9-0.1-2.5,0.3-3.3c1.6-2.8,4.6-2,5.2,0.3c0.1,0.2,0.3,0.2,0.4,0.2c0.9-0.2,1.9-0.5,2.8-0.7
							c0.3-0.1,0.4-0.5,0.4-0.7c-1.1-3.3-4.2-4.7-7.6-3.9c-3.4,0.8-5,3.9-5.2,7.2c-0.1,3.8,1.7,7.4,5.7,7.9c3.6,0.5,6-1.5,7.1-4.8
							c0.1-0.2,0.1-0.5-0.2-0.5c-0.9-0.3-1.9-0.5-2.8-0.8C29.9,27.6,29.5,28.5,30,28.7z"/>
					</g>
				</g>
			</g>
		</g>
	</g>
</g>
</svg>
