<?xml version="1.0" encoding="utf-8"?>
<!-- Generator: Adobe Illustrator 27.9.0, SVG Export Plug-In . SVG Version: 6.00 Build 0)  -->
<svg version="1.1" id="Camada_1" xmlns="http://www.w3.org/2000/svg" xmlns:xlink="http://www.w3.org/1999/xlink" x="0px" y="0px"
	 viewBox="0 0 52.5 54" style="enable-background:new 0 0 52.5 54;" xml:space="preserve">
<style type="text/css">
	.st0{fill:#FAC709;}
</style>
<g>
	<g>
		<circle class="st0" cx="26.3" cy="27" r="25"/>
		<g>
			<path d="M4.5,18.6C9.4,7.6,21.4,1.5,33.2,5C46.1,8.8,53.2,23,48,35.5c-4.7,11.3-17.7,17.1-29.3,13.3C5.9,44.6-0.1,30.6,4.7,18.2
				c0.8-1.9-1.9-4.1-2.8-1.7c-8.5,22.1,14.1,45.9,36.4,34.7C59.8,40.3,56.1,7.1,32.9,0.9C20.2-2.5,7.3,4.3,2,16.1
				C1.3,17.8,3.5,20.9,4.5,18.6z"/>
		</g>
	</g>
</g>
<g>
	<g>
		<polygon points="35.9,23.2 31.1,23.1 31.2,13.5 21.6,13.4 21.5,23 16.7,23 26.2,32.7 		"/>
		<g>
			<path d="M35.8,22.7c-1.2,0-2.6-0.3-3.8-0.1c-0.8,0.2-1-0.2-0.6,0.4c-0.1-0.2,0-1.2,0-1.5c0-2.7,0.1-5.3,0.1-8
				c0-0.3-0.1-0.6-0.4-0.6c-3.2,0-6.4-0.1-9.6-0.1c-0.2,0-0.3,0.3-0.3,0.4c0,2.7-0.1,5.3-0.1,8c0,0.2,0.1,1.1,0,1.3
				c0,0,0.2-0.1-0.7-0.1c-1.3,0-2.5,0-3.8,0c-0.4,0-0.3,0.7-0.1,0.9c3.2,3.2,6.3,6.5,9.5,9.7c0.1,0.1,0.3,0.1,0.5,0
				c3.2-3.2,6.5-6.3,9.7-9.5C36.5,23.2,36.1,22.3,35.8,22.7c-1.6,1.5-3.2,3-4.7,4.5c-0.8,0.8-4.4,5-4.9,5c-0.3,0-3.9-4.2-4.5-4.8
				c-1.6-1.6-3.2-3.2-4.8-4.9c0,0.3-0.1,0.6-0.1,0.9c1.6,0,3.2,0,4.8,0c0.2,0,0.3-0.3,0.3-0.4c0-2.7,0.1-5.3,0.1-8
				c0-0.2-0.1-1.1,0-1.3c0.2-0.3-0.6,0.3,0.3,0.1c1.3-0.3,2.9,0,4.2,0c1.4,0,2.8,0.1,4.2,0c1,0,0.1-0.4,0.2-0.3c0.1,0.3,0,1,0,1.3
				c0,2.7-0.1,5.3-0.1,8c0,0.3,0.1,0.6,0.4,0.6c1.6,0,3.2,0.1,4.8,0.1C36.4,23.7,36.3,22.7,35.8,22.7z"/>
		</g>
	</g>
	<g>
		<polygon points="37.6,29.4 37.6,38 15,38 15,29.4 13.4,29.4 13.4,39.6 39.2,39.6 39.2,29.4 		"/>
		<g>
			<path d="M37.1,29.5c0,1.8,0,3.5,0,5.3c0,0.8,0.2,2,0,2.8c-0.3,1.1,1.1-0.4,0.1-0.1c-2.9,1-7.8,0-10.8,0c-2.2,0-4.4,0-6.6,0
				c-0.8,0-3.5,0.5-4.2,0c-0.7-0.5-0.2-6.4-0.2-8.3c0-0.1-0.1-0.3-0.3-0.3c-0.5,0-1.1,0-1.6,0c-0.3,0-0.6,0.3-0.6,0.6
				c0,3.4,0,6.8,0,10.2c0,0.1,0.1,0.3,0.3,0.3c8.6,0,17.2,0,25.8,0c0.3,0,0.6-0.3,0.6-0.6c0-3.4,0-6.8,0-10.2c0-0.1-0.1-0.3-0.3-0.3
				c-0.5,0-1.1,0-1.6,0s-0.9,0.9-0.3,0.9c1.8,0,0.8-0.3,1.3,1c0.5,1.2,0,3.5,0,4.8c0,1,0.4,2.8,0,3.7c-0.2,0.5,1.2-0.3-0.1-0.2
				c-5.8,0.7-12.1,0-17.9,0c-1.4,0-5.5,0.8-6.7,0c-0.4-0.2-0.2-3.8-0.2-5.3c0-1-0.4-3.2,0-4.2c0.3-0.7-0.2,0.2-0.2,0.2
				c0.9-0.4,0.8-0.1,0.9,0.3c0.7,2.3,0,5.6,0,8.1c0,0.1,0.1,0.3,0.3,0.3c7.5,0,15.1,0,22.6,0c0.3,0,0.6-0.3,0.6-0.6
				c0-2.9,0-5.7,0-8.6C38,28.6,37.1,29.1,37.1,29.5z"/>
		</g>
	</g>
</g>
</svg>
