<?xml version="1.0" encoding="utf-8"?>
<!-- Generator: Adobe Illustrator 27.9.0, SVG Export Plug-In . SVG Version: 6.00 Build 0)  -->
<svg version="1.1" id="Camada_1" xmlns="http://www.w3.org/2000/svg" xmlns:xlink="http://www.w3.org/1999/xlink" x="0px" y="0px"
	 viewBox="0 0 52.9 53.9" style="enable-background:new 0 0 52.9 53.9;" xml:space="preserve">
<style type="text/css">
	.st0{fill:#FAC709;}
</style>
<g>
	<g>
		<g>
			<circle class="st0" cx="26.4" cy="27" r="25"/>
			<g>
				<path d="M26.3,3.9c12.6,0.3,23.5,10.3,23.5,23.2C49.9,39.9,39,50,26.5,50C13.8,50,3,39.5,2.9,26.8C2.8,13.8,13.7,4.3,26.3,3.9
					c1.9-0.1,2.3-4,0.2-3.9C2.6,0.6-9.3,31.1,8.8,47.3c18.8,16.8,47.6-1.1,43.8-25.1C50.5,9.3,39.3,0.3,26.5,0
					C24.6-0.1,24.1,3.9,26.3,3.9z"/>
			</g>
		</g>
	</g>
</g>
<g>
	<g>
		<polygon points="39.1,27.2 19.7,40.9 19.7,13.1 		"/>
		<g>
			<path d="M38.5,26.8c-6.5,4.6-12.9,9.1-19.4,13.7c0.4,0.1,0.9,0.3,1.3,0.4c0-9.3,0-18.5,0-27.8c-0.4,0.1-0.8,0.3-1.2,0.4
				c6.5,4.7,12.9,9.4,19.4,14.1c0.6,0.5,1.7-0.2,0.9-0.8c-6.5-4.7-12.9-9.4-19.4-14.1c-0.4-0.3-1.2-0.2-1.2,0.4c0,9.3,0,18.5,0,27.8
				c0,0.6,1,0.7,1.3,0.4c6.5-4.6,12.9-9.1,19.4-13.7C40.3,27.1,39.1,26.4,38.5,26.8z"/>
		</g>
	</g>
	<g>
		<path d="M38.9,26.7c-5.7,4-11.3,8-17,12c-0.7,0.5-1.6,1.5-2.4,1.7c0.8-0.2,0.5,1.1,0.6-0.1c0-0.4,0-0.9,0-1.4c0-3.9,0-7.9,0-11.8
			s0-7.9,0-11.8c0-0.5,0-0.9,0-1.4c0-1.2,0.1,0-0.7-0.2c0.8,0.2,1.7,1.3,2.4,1.7c5.7,4.1,11.3,8.2,17,12.3c0.6,0.4,1-0.7,0.5-1
			c-6.5-4.7-12.9-9.4-19.4-14.1c-0.3-0.3-0.7,0.1-0.7,0.5c0,9.3,0,18.5,0,27.8c0,0.3,0.2,0.8,0.6,0.6c6.5-4.6,12.9-9.1,19.4-13.7
			C39.8,27.4,39.5,26.3,38.9,26.7z"/>
	</g>
</g>
</svg>
