<?xml version="1.0" encoding="utf-8"?>
<!-- Generator: Adobe Illustrator 27.8.1, SVG Export Plug-In . SVG Version: 6.00 Build 0)  -->
<svg version="1.1" id="Camada_1" xmlns="http://www.w3.org/2000/svg" xmlns:xlink="http://www.w3.org/1999/xlink" x="0px" y="0px"
	 viewBox="0 0 228.3 179.2" style="enable-background:new 0 0 228.3 179.2;" xml:space="preserve">
<style type="text/css">
	.st0{fill:#FFFFFF;}
	.st1{fill:#1D1D1D;}
</style>
<g>
	<g>
		<path class="st0" d="M3.3,18.9c0,0-4.4,58.4,99.9,49.6l1.5-40.3c0,0-0.7-11.1,10.7-10.7V1.5c0,0-47-3-47,16.3L3.3,18.9z"/>
		<g>
			<g>
				<g>
					<g>
						<polygon class="st1" points="3.4,22.9 3.5,23.1 3.9,22.5 						"/>
						<path class="st1" d="M5.9,21.5c-0.1-0.1,0-0.3-0.1-0.4l-1.5,1.8C5,23.9,5.4,20.8,5.9,21.5z"/>
						<path class="st1" d="M6.3,21.7c0.6,0.4,0.8-0.4,1-0.7C7.1,21.6,6.2,20.8,6.3,21.7z"/>
						<path class="st1" d="M57.7,20.4c-0.1,0-0.1,0-0.2,0.1C57.7,20.5,57.7,20.4,57.7,20.4z"/>
						<path class="st1" d="M68.3,14.9l-0.6-0.4c0.1,0.4,0.1,0.9,0.1,1.3c0,0.4,0,0.9,0,1.3c0,0,0,0.1,0,0.1l-0.1,0l-0.3,0l-0.6,0
							l-1.2-0.1c-0.4,0-0.7,0-1.1,0c-0.4,0-0.9,0.1-1.3,0.2l0.2-0.2c-6.7-0.1-12.9,1.1-19.5,1.7c0.1-0.1,0.1-0.3,0.2-0.3
							c-0.3,0.2-0.7,0.7-1,0.6c-0.1-0.1,0.1-0.3,0.2-0.4c-1.4-1.1-4.1,0.8-5-0.1c-0.4,0.1-0.6,0.6-0.3,0.9
							c-5.2,0.4-10.8,0.7-16.1,1.6c-0.3-0.1-0.3-0.4-0.2-0.8c-4.5,1.9-9.3,1.2-13.9,1c-0.2,0.5,0.5,0.5,0,1c1.5,0.6,2.7-1.2,4.1-0.4
							l-0.2,0.5c1,0.3,0.2-1.1,1.2-0.6c0.4,0.4-0.1,0.6,0.1,0.6c2.1-0.2,4.3,0.1,6.2-1c0.5,1,2.3,0,3,0.9c0.5-0.4,1.1-0.3,1.3-1
							c7.3,0.4,14.8-0.7,22.3-0.7c3.5-2,7.7,0.2,11.9-0.5c0,0.1,0,0.1,0,0.2c1.4-0.5,3.3-0.7,5-0.5l1.4-0.8c0.4,0.1,0.7,0.1,1.2,0.2
							l1.5,0.1c0.5,0,1.1,0.1,1.6,0.1l0.8,0l0.4,0c0.1,0,0.1,0,0.2,0l0.1-0.1l0.3-2.1l0.5-2c0-0.2,0.1-0.3,0.1-0.4l0.1-0.3l0.3-0.6
							c0.2-0.4,0.5-0.7,0.7-1.1c1-1.4,2.4-2.6,4.1-3.6c3.2-2,7.2-3.2,11.2-3.8c5.4-0.9,10.6-0.9,15.7-1c2.6-0.1,5.1-0.1,7.7-0.3
							c0.4,0,0.4-0.1,0.6-0.1c0.1,0,0.3-0.1,0.4-0.1l1-0.2c0.5-0.2,0.5,0.1,0.6,0.4c0.1,0.3,0.3,0.6,0.4,1c-0.2,0-0.3,0.1-0.4,0
							c0,0.1,0,0.2,0.1,0.3l0,0.2l0,0.3c0,0.4,0,0.8,0,1.2c0,0.8,0,1.5-0.1,2.3c0,0.7-0.1,1.5-0.1,2.2c0,0.4,0,0.7,0,1.1l0,0.6
							c0,0.2,0,0.4,0.1,0.5l-0.2,0c0.1,0.3,0.2,0.7,0.3,1.1c0,0.2,0.1,0.4,0.1,0.6l0,0.3l0,0.2c0,0,0,0.1,0,0.1l-0.1,0
							c-0.4,0.1-0.8,0.1-1.3,0.2c-0.6,0.1-1,0.1-1.9,0.5c-1.6,0.5-3.1,1.4-4.3,2.6c-1.2,1.2-2,2.8-2.3,4.3c-0.4,1.6-0.5,3.1-0.2,4.6
							l0-0.1c0.1,0.5,0.1,1,0.2,1.5c-0.5,8.7-0.7,18.5-0.5,27.7l-0.4,0c0.1,1.8,0.1,3.7,0,5.5c-0.1,1.9-0.3,3.4-0.6,4.8
							c0.1,0.2-0.2,0.2-0.4,0.2l-0.6,0l-1.1,0l-1.1,0l-1.4,0c-1.8,0-3.6,0.2-5.4,0.4c-3.8-0.3-7.6,0.4-11.5,0.8L78,69.2l-1.5,0.1
							l-1.5,0c-1.9,0-3.9-0.1-5.7-0.5c-2.3-1.1-5-0.9-7.7-0.6c-2.7,0.1-5.5,0.3-7.5-1.1c-4.2-2.3-8.4-3.5-12.7-4.6
							c-4.3-1-8.7-2-13.2-3.4c-0.9-0.6-1.7-1.2-2.6-1.8c-0.9-0.6-1.8-1.2-2.7-1.7c-0.9-0.5-1.8-1.1-2.7-1.7
							c-0.9-0.6-1.8-1.2-2.6-1.9c-3.4-2.6-6.4-5.8-7.8-9.8c-0.8-0.6-1.4-1.5-1.8-2.4c-0.4-0.9-0.7-2-0.9-3c-0.4-2.1-0.6-4.3-1.3-6.2
							l-0.4,0.3c0.4-0.9-0.2-1.6-0.8-2.2c-0.6-0.6-1.1-1.3-0.1-2l0.1,0.1c0.9-0.9-2.8-1.4-1.6-2.1l-0.5-0.1c-0.3-1,0.6-0.2,0.7-1
							c-0.1-0.3-1,0-0.7-0.6c1.1-0.2,0.9-0.8,0.8-1.3c-0.1-0.6-0.2-1.2,1-1.2c0,0.5,0.9-0.8,1.5,0.3C6,20.3,5.9,18.9,4.9,19
							c-1.1-0.2-2-1-2.9,0l0.8,0.2c-0.8,0.3-0.4,0.3-1,0.4c-0.1,1.4-1.2,1.6-1.6,2.7c0,0,0,0,0.1,0c1,0.6,0.6,1.6,0.5,2.2l-0.4,0.3
							c-0.9,0.5,2,1.3,0.4,1.1c0.8,2.8,1.7,5.9,2.8,8.9C4.2,35,4.4,37.1,5.2,36c-0.5,0.6-0.5,1.5-0.4,2.3c0.1,0.8,0.5,1.6,0.7,2
							c-0.1,0-0.3,0.1-0.3-0.1c-0.4,1.2,0.2,1.4,0.8,1.7c0.6,0.3,1.1,0.5,0.6,1.7c0.7-0.3,1,0.4,1.4,1.1c0.4,0.7,0.9,1.5,1.8,1.3
							c-0.1,0.4-0.3,0.6-0.6,0.7c1.8,2.3,3.5,5.1,5.3,6.8c1.2,0.2,2,1.2,3,2c0.9,0.8,1.8,1.6,3.1,1.4c0.5,0.6,1.1,1.3,1.9,2
							c0.4,0.3,0.8,0.7,1.3,1c0.5,0.2,1,0.4,1.5,0.5l-0.3,0.1c1,0.5,2.2,1.2,3.3,1.5c1.2,0.4,2.3,0.6,3.2,0.4
							c-0.1,1.9,0.9,2,1.6,2.8c0.9-0.1,2,0.2,3.2,0.6c1.2,0.4,2.5,0.6,3.7,0.6c0.1,0.9,1.9,0.3,1.7,1.4c3.4-0.2,6.9,0.4,10.5,1.2
							c0.9,0.2,1.8,0.5,2.6,0.7c0.9,0.2,1.8,0.5,2.6,0.7c1.7,0.5,3.4,1.2,5.1,1.8l-0.1,0.1c1-0.5,2.1-1.8,3.1-2.6
							c0.1,0.1,0,0.3-0.1,0.3c1.2-0.1,2.3,1.2,3.5,1c0,0.2,0,0.2-0.2,0.4c1.2-0.5,2.3,1.1,3.8,0.2l0.1,0.3l0.9-0.4
							c0,0.4-0.1,1-0.6,0.8c1.3,0.1,2.7,0.2,4,0.2c1.3,0,2.7,0,4-0.1c1.3-0.1,2.7-0.1,4-0.2c1.3-0.1,2.7-0.3,4-0.4
							c1.3-0.1,2.7-0.3,4-0.4c1.3-0.1,2.7-0.4,4-0.5l2-0.2l2.8-0.2l2.9-0.2c0.2,0,0.1-0.1,0.1-0.3l0-0.4l0-0.7l0.1-1.5l0.3,0.8
							c-0.2-1.2-0.3-2.3-0.5-3.3c0.2,0,0.3,0.2,0.4,0.3l0.1-0.7c0-0.2,0.1-0.3,0.1-0.5c0-0.3,0.1-0.7,0.1-1c0-0.7,0-1.3-0.1-2
							c-0.1-1.3-0.3-2.7-0.2-4c0.2,0,0.5,0.4,0.8,0.1c-1-1.9,1.5-3-0.7-4.1c0.1-0.1,0.6-0.1,0.8,0.1c-0.5-5.3-0.3-10.8,0.3-16.1
							c-1.1-2.9-0.8-5.9-0.7-8.9l0-0.1l0-0.1c0-0.7,0-1.6,0-2.4c0.1-0.8,0.1-1.6,0.1-2.5l0.4,0.2c0.2-1.8,1.4-3.6,3.1-4.5l0.6-0.3
							c0.2-0.1,0.5-0.2,0.7-0.2c0.5-0.1,0.9-0.3,1.5-0.3c0.5,0,1.1-0.2,1.7-0.1l1.8,0c0.2,0,0.1-0.2,0.1-0.3l0-0.4l0-0.9l0.1-1.9
							l0-1.8c0-0.5,0-1.1,0-1.6c0.1-1.3,0-2.4-0.1-3.5c0-0.5-0.1-1.1-0.1-1.7c0-0.6-0.1-1.3-0.1-1.9l0.5-0.3
							c-0.2-0.6-0.4-1.1-0.5-1.6c0-0.3-0.1-0.5-0.1-0.8c-0.3,0-0.6,0-0.9-0.1c-1.2-0.1-2.3-0.3-3.7-0.6c-2.3-0.4-4.7-0.8-7,0.3
							l0.3-0.7c-0.7,1.1-2.8-0.3-2.4,1.5l-0.8-0.5c-1.5,1.2-2.9,1.1-4.4,0.8c-1.5-0.2-3.2-0.5-4.9,0.5L92,2.2
							c-1,0.5-2.1,0.9-2.9,0.7c0.1-0.1,0-0.2,0.2-0.3C87.7,2,86,2.3,84.4,3c-1.6,0.6-3.1,1.6-4.7,2.1l0.1-0.9
							c-0.6,0.7-1.7,1.2-2.8,1.6c-0.6,0.3-1.1,0.5-1.7,0.8c-0.5,0.3-1,0.6-1.4,1l-0.1-0.4c-0.2,0.4-0.4,0.7-0.6,1.1l-0.5-0.6
							c-1.2,0.8-2.1,2-2.9,3.2c-0.3,0.6-0.7,1.3-0.9,1.9C68.7,13.6,68.4,14.3,68.3,14.9z"/>
						<path class="st1" d="M43.3,18.6C43.3,18.6,43.3,18.6,43.3,18.6C43.4,18.6,43.4,18.6,43.3,18.6z"/>
						<path class="st1" d="M0,22.8c0-0.1,0.1-0.3,0.1-0.4C0,22.4,0,22.6,0,22.8z"/>
					</g>
				</g>
			</g>
		</g>
	</g>
	<g>
		<path class="st0" d="M180.8,71.4l-2.6,72.5c0,0-50.3,7.4-81-23.3l-48.1,1.1l-2.2-52.3L180.8,71.4z"/>
		<g>
			<g>
				<g>
					<g>
						<polygon class="st1" points="180.9,67.4 180.7,67.2 180.2,67.8 						"/>
						<path class="st1" d="M177.7,68.8c0.1,0.1,0,0.3,0.1,0.4l1.9-1.7C178.9,66.4,178.2,69.4,177.7,68.8z"/>
						<path class="st1" d="M177.1,68.6c-0.7-0.4-1,0.4-1.2,0.7C176.2,68.6,177.3,69.5,177.1,68.6z"/>
						<path class="st1" d="M113.5,68c0.1,0,0.2,0,0.2-0.1C113.6,67.9,113.5,68,113.5,68z"/>
						<path class="st1" d="M96.9,70.6l-0.2,0.7c3.1-1.1,6.6,0.1,9.9-0.3l-0.2,0.2c8.3,0.4,16-0.6,24.2-1c-0.1,0.1-0.2,0.3-0.3,0.3
							c0.4-0.2,0.8-0.6,1.3-0.6c0.1,0.1-0.1,0.3-0.3,0.4c1.7,1.1,5.1-0.6,6.2,0.2c0.5-0.1,0.7-0.6,0.4-0.9c6.5-0.2,13.4-0.3,20-1.1
							c0.3,0.2,0.4,0.5,0.3,0.8c5.6-1.7,11.5-0.9,17.3-0.5c0.2-0.5-0.6-0.5,0-1c-1.8-0.6-3.4,1.1-5.1,0.2l0.2-0.4
							c-1.2-0.3-0.3,1.1-1.5,0.5c-0.5-0.4,0.1-0.6-0.1-0.6c-2.6,0.1-5.3-0.3-7.8,0.8c-0.6-1-2.8-0.1-3.7-1c-0.7,0.4-1.3,0.3-1.6,0.9
							c-9.1-0.7-18.4,0.2-27.6-0.1c-4.4,1.8-9.6-0.5-14.7,0c0-0.1,0-0.1,0-0.2c-1.7,0.4-4.1,0.6-6.2,0.4l-1.7,0.8
							c-12.1-1.8-24.4-0.9-36.7-1.7c-3.8-0.2-7.5-0.4-11.2-0.7c-1.8-0.1-3.6-0.2-5.4-0.3c-0.6,0-2.5-0.1-4-0.1l-4.7-0.1
							c0.1,2.5,0.2,5.1,0.4,7.6l0.2,2.3c0.1,0.7,0.2,1.5,0.2,2.2c0.4,2.9,0.8,5.9,1.5,8.9c-0.2,0-0.3,0.1-0.4-0.2
							c0.5,3.9,0,7.5,0.6,11.2l-0.2,0c0.8,3.8,1.1,7.8,1.2,11.8c0.1,2,0.2,4,0.2,6c0.1,1.1,0.1,2.2,0.2,3.3c0.1,1.3,0.2,2.5,0.3,3.7
							c2-0.2,3.8-0.4,5.4-0.7c10.8-0.1,22.9-0.5,34.3-1.3l0,0.4c2.3-0.3,4.5-0.3,6.8-0.3l1.6,0c0.5,0.1,1.1-0.1,1.3,0.4l2.2,2.4
							c3.2,3.2,6.7,6.2,10.8,8.4c3.8,2.8,8.5,4.5,13.2,5.8c4.7,1.3,9.4,2.2,13.9,3.8c2.6,1.6,6.1,1.7,9.5,1.6c3.4,0,6.6-0.3,9.3,0.9
							c5.5,1.8,11.2,2.1,16.8,1.4l1-0.1l1.2-0.2c0.9-0.1,1.7-0.3,2.5-0.5l1.1-0.3c0,0,0.1,0,0.1-0.1l0-0.2l0-0.3l0-0.7
							c0-0.9-0.1-1.7-0.2-2.5c-0.1-0.8-0.1-1.5-0.2-2.2l-0.2-2.1c-0.2-1.4-0.3-2.8-0.5-4.2c1.4-10.3-0.9-20.8,1.6-30.8
							c-1.2-4.8,2-10,1.8-15.3l-0.5,0.2c1.5-1.9-1.8-4.3,0.3-5.4l0.1,0.2c1.1-1-2.4-2.4-1.1-3l-0.5-0.2c-0.1-1.2,0.6-0.1,0.8-1.1
							c-0.1-0.4-1-0.2-0.6-0.9c2.2-0.1-0.4-3,2.1-3c0,0.7,1-1,1.4,0.5c0.3-0.4,0.2-2.5-0.8-2.3c-1.1-0.2-2-1-2.9,0.2l0.8,0.3
							c-0.8,0.4-0.4,0.3-1,0.4c-0.2,1.6-1.3,1.8-1.9,2.9c0,0,0,0,0.1,0c0.9,0.8,0.3,1.9,0.2,2.5l-0.5,0.2c-0.9,0.3,1.7,1.9,0.2,1.4
							c0.3,3.3,0.1,7.1,0,10.8c0.6,0.5-0.2,2.8,1,2.1c-1.4,0.9-1.8,3.6-1.8,4.6c-0.1,0-0.3-0.1-0.2-0.2c-1.8,1.9,1.5,2.4-0.7,4.2
							c1.5,0.3-0.6,3.3,1.1,4.5c-0.3,0.2-0.6,0.3-0.9,0.2c-0.2,3.3-0.8,7-1,9.8c1.2,2.5-0.8,5.8,0.9,7.9c-0.4,1.7-1.3,4.5-0.7,6.9
							l-0.2-0.2c0,2.7,0,6.1,1.1,8c-0.9,0.4-1.2,0.8-1.5,1.4c-0.1,0.3-0.2,0.5-0.3,0.8c-0.1,0.1-0.2,0.1-0.3,0
							c0.2,0,0.3,0.1,0.4,0.3c0,0.1,0.1,0.1,0.1,0.2c0,0.1,0,0.1,0,0.1c-0.1,0.1-0.2,0.2-0.3,0.3c0,0-0.1,0.1-0.1,0.1
							c-0.1,0-0.3,0.1-0.5,0.1c-0.3,0.1-0.7,0.2-1,0.3c-0.5-0.8-2.2,0.5-2.4-0.7c-3.7,1.3-8,1.7-12.3,1.3c-4.3-0.4-8.6-1.4-12.4-2.9
							l0.1-0.1c-1.1,0.5-2.5,1.7-3.7,2.3c-0.1-0.1,0-0.3,0.2-0.3c-1.5-0.1-2.6-1.4-4.1-1.6c0.1-0.2,0.1-0.2,0.3-0.3
							c-1.5,0.2-2.5-1.6-4.3-1.1l0-0.3c-0.4,0.1-0.7,0.1-1.1,0.1c0.1-0.4,0.3-0.9,0.8-0.6c-6-1.9-12-3.7-17.9-6.4
							c-2.9-1.3-5.8-2.9-8.5-4.6c-2.7-1.8-5.3-3.7-7.5-6.1l0.6,0.1c-0.2-0.1-0.3-0.2-0.6-0.3l-0.8-0.5l-0.8-0.5l-0.4-0.2
							c-0.1-0.1-0.1,0-0.2,0l-0.2,0c0.1-0.2,0.3-0.3,0.5-0.4c-0.6-0.1-1.2-0.1-1.8-0.1l-0.9,0l-0.6,0c-0.8,0-1.7,0.1-2.5,0.2
							c-1.7,0.2-3.3,0.5-4.9,0.4c0-0.2,0.5-0.6,0-0.8c-2.3,1.1-3.8-1.3-5,0.9c-0.1-0.1-0.2-0.6,0-0.8c-6.6,0.9-13.3,1-20,0.8
							c-2.1,0.8-4.3,1.1-6.6,1.2c-0.6,0-1.1,0-1.7,0.1l-1.5,0c-0.8,0-1.6,0.1-2.5,0.1c-0.1-0.9-0.3-1.8-0.8-3l0.4,0
							c-1.7-7.3-0.6-15.3-1.2-22.9c0-3.2-0.5-5.3-0.7-8.5l0.5-0.1c-1-2.6-0.8-5.4-0.5-8.3c0.1-0.7,0.1-1.4,0.2-2.1l0.1-1.1l0-1
							c0-1-0.2-2-0.7-3.6l0.2-0.1c0.1,0.2,0.2,0.3,0.3,0.5l0.2,0.2c0,0-0.1-0.1-0.1-0.2c-0.1-0.4,0.7-0.3,1.3-0.3
							c0.5,0,0.9-0.1,0.5-1c0.4,0.2,0.8,0.4,1.1,0.6c3.8-2.3,6.9,1.2,11.6-0.3l-0.3,0.4c1.3-0.3,2.7-0.5,3.6-0.1
							c-0.1,0.1-0.1,0.2-0.4,0.3c3.9,1.7,8.3,0,12.4,0.1l-0.5,0.8c2-0.9,5.7,0,8.3-0.4l-0.2,0.4l1.3-0.5l0,0.7
							C90.3,71.2,93.5,70.6,96.9,70.6z"/>
						<path class="st1" d="M131.3,70.3C131.3,70.3,131.3,70.3,131.3,70.3C131.1,70.3,131.2,70.3,131.3,70.3z"/>
						<path class="st1" d="M177.3,75.7c0-0.2,0.1-0.3,0.2-0.4C177.3,75.3,177.3,75.6,177.3,75.7z"/>
					</g>
				</g>
			</g>
		</g>
	</g>
	<g>
		<polygon class="st0" points="39.9,121.4 78.7,121.4 78.7,158.3 72.8,160.9 45.1,155.8 		"/>
		<g>
			<g>
				<g>
					<g>
						<polygon class="st1" points="35.9,122 35.7,122.1 36.4,122.1 						"/>
						<path class="st1" d="M37.5,122.9c0.1-0.1,0.3-0.1,0.4-0.1l-1.9-0.4C35.1,122.8,38.1,122.6,37.5,122.9z"/>
						<path class="st1" d="M37.3,123.1c-0.4,0.3,0.5,0.3,0.8,0.3C37.4,123.5,38.2,122.9,37.3,123.1z"/>
						<path class="st1" d="M41.2,146.3C41.2,146.3,41.2,146.2,41.2,146.3C41.1,146.2,41.2,146.3,41.2,146.3z"/>
						<path class="st1" d="M45,151.9l0.7,0c-1.3-1-0.3-2.4-1-3.5l0.2,0c-0.2-3.1-1.7-5.7-2.7-8.6c0.1,0,0.3,0,0.4,0.1
							c-0.3-0.1-0.7-0.2-0.7-0.4c0.1-0.1,0.3,0,0.4,0c1-0.8-1-1.8-0.2-2.3c-0.1-0.2-0.6-0.2-0.9,0c-0.6-2.3-1.2-4.8-2.4-7.1
							c0.1-0.1,0.4-0.2,0.8-0.2c-2.1-1.8-1.7-4-1.7-6.2c-0.5,0-0.5,0.3-1,0.2c-0.5,0.8,1.3,1.1,0.6,1.8l-0.5,0
							c-0.2,0.5,1.1-0.1,0.6,0.5c-0.3,0.2-0.6,0-0.6,0.1c0.3,0.9,0.1,2,1.3,2.7c-0.9,0.4,0.1,1-0.8,1.5c0.4,0.2,0.4,0.4,1,0.4
							c0,3.4,1.4,6.6,1.9,10c2.1,1.3,0.2,3.5,1.1,5.3c-0.1,0-0.1,0-0.2,0c0.6,0.5,0.9,1.4,0.8,2.2l0.9,0.5c-0.3,1.2-0.3,2.4-0.3,3.6
							l0,0.4l0.1,0.6l0.2,1.3c0.1,0.9,0.2,1.8,0.4,2.6c1.5,0.3,3.1,0.6,4.6,0.9c1.1,0.2,2.1,0.5,3.1,0.8c5,1.4,9.2,3.6,14.5,2
							c0,0.2,0,0.3-0.2,0.3c1.5-0.1,2.7,0.8,4.1,0.7l0,0.2c0.5-0.1,1.1-0.2,1.6-0.2c0.2,0,0.6,0,1,0.1c0.3,0,0.7,0.1,1,0.1l1-0.5
							l0.9-0.4c0.5-0.2,1-0.4,1.5-0.6l0.9-0.4c0.3-0.2,0.6-0.3,0.9-0.5c0.6-0.3,1.1-0.7,1.5-1.1c-0.1-0.4-0.2-0.8-0.3-1.1
							c0.1-2.4,0.1-4.4,0-6.5c-0.1-2.1-0.2-4.3-0.5-6.4l0.4,0c-0.8-3.4,1.2-6.6,0.6-10c0.9-3.5-2.2-7.1-1-10.6
							c0.8-1.2,0.5-2.6,0.1-3.2c-1,0.3-1.9,0.6-2.6,0.8c-0.7,0.1-1.1,0.1-1.6-0.5c-4.1-2.9-8.2-1-12.3,0.7c-3.8-1-7.6,1.6-11.4-0.5
							c-1.8,1.3-3.7-1.7-5.7-1.3l0.1,0.5c-0.7-1.4-1.6,2-2-0.1l0.1-0.1c-0.4-1.1-0.9,2.5-1.1,1.2l-0.1,0.5c-0.4,0.2-0.1-0.6-0.4-0.8
							c-0.1,0.1,0,1-0.3,0.7c-0.1-2.2-1.1,0.5-1.1-2c0.2,0-0.4-0.9,0.2-1.5c-0.2-0.2-0.9-0.1-0.8,0.9c-0.1,1.1-0.4,2,0.1,2.9
							l0.1-0.8c0.2,0.8,0.1,0.4,0.2,1c0.6,0.1,0.7,1.3,1.1,1.7c0,0,0,0,0-0.1c0.3-1,0.7-0.4,0.9-0.3l0.1,0.4
							c0.1,0.9,0.7-1.8,0.5-0.2c1.2-0.4,2.6-0.4,4-0.4c0.2-0.6,1,0.1,0.7-1.1c0.3,1.3,1.4,1.7,1.7,1.6c0,0.1,0,0.3-0.1,0.2
							c0.7,1.7,0.9-1.6,1.5,0.5c0.1-1.5,1.2,0.5,1.6-1.3c0.1,0.3,0.1,0.6,0.1,0.9c1.2,0,2.6,0.6,3.6,0.6c0.9-1.3,2.2,0.6,2.9-1.2
							c0.6,0.4,1.7,1.1,2.5,0.4l-0.1,0.2c1-0.1,2.2-0.2,2.9-1.3c0.3,1.7,0.7,1.4,1.2,1.9c0.7-0.8,2-0.6,3-1.3
							c0.2,0.8,0.8-0.3,0.9,0.8c1.4-1.1,3-1.5,4.5-1.4l0.3,0l0.1,0l0.1,0c0.1,0,0.2,0.1,0.2,0.1c0.1,0.1,0.3,0.2,0.3,0.3
							c0.1,0.3,0.1,0.6-0.3,1c0,0-0.1,0.1-0.1,0.1l-0.1,0.1c0.6-0.6,2-1.6,2.9-1.9c-0.1,0.1-0.3,0.2-0.3,0.2
							c0.1,0.1-0.1,0.4-0.4,0.7c-0.2,0.3-0.5,0.5-0.4,0.6c-0.2,0.1-0.2,0.1-0.4,0.1c0.3,0,0,0.2-0.2,0.3c-0.2,0.1-0.3,0.1,0.1,0.5
							l-0.3,0l0.4,0.4c-0.4,0-1,0-0.8-0.2c-0.4,4.8,1.6,9.7,1.3,14.6l-0.4-0.2l0.7,0.9c-0.2,0-0.3-0.1-0.4-0.1
							c-0.7,1.2,0.4,2.5,0.3,3.6c-0.2,0-0.6-0.2-0.8,0c1,0.9-1.4,1.4,0.8,1.8c-0.1,0-0.6,0.1-0.8,0c0.7,2.4,0.7,4.9,0.3,7.4
							c1.3,1.5,1,2.3,1,3.4c-0.5,0.2-0.8,0.5-1.1,1.3l-0.2-0.3c-0.8,1.1-2.3,1.7-3.5,2.1c-1.2-0.4-2.6-1-4-1.1
							c-1.1-0.4-2-0.1-3.2-0.3l0.1-0.5c-2.3,1.5-3.8-2.4-6.2-0.8l0.3-0.6c-0.5,1-1.2-0.6-1.4,1.2l-0.3-0.6c-1.8,2-2.3-1.5-4.3-0.4
							l0.2-0.4c-0.5,0.2-1.1,0.4-1.4-0.1c0.1,0,0.1-0.2,0.2-0.3c-1.1-1.9-3-0.4-4.5-0.7l0.3-0.7c-0.5,0.4-0.9,0.3-1.3,0.2
							c-0.5-0.1-0.8-0.3-1.4-0.2l0.3-0.3c-0.2,0.1-0.4,0.2-0.6,0.3l-0.2,0l0.7-0.6C46,153.8,45.2,153.2,45,151.9z"/>
						<path class="st1" d="M42.2,139.5C42.2,139.5,42.2,139.5,42.2,139.5C42.3,139.5,42.3,139.5,42.2,139.5z"/>
						<path class="st1" d="M41.5,124.7c-0.1,0-0.1-0.1-0.2-0.1C41.4,124.7,41.5,124.7,41.5,124.7z"/>
					</g>
				</g>
			</g>
		</g>
	</g>
	<g>
		<path class="st0" d="M136.8,166.9l3.7-19.2l37.7-3.7l2.6-72.5c0,0,24.8-12.2,32.2-33.7h14.4c0,0-1.1,14.4-5.2,22.9
			c0,0,7.4,50.3-21.5,91L136.8,166.9z"/>
		<g>
			<g>
				<g>
					<g>
						<polygon class="st1" points="137.7,170.8 138,170.9 138.3,170.2 						"/>
						<path class="st1" d="M140.4,168.7c-0.1-0.1-0.1-0.3-0.2-0.4l-1.3,2.1C139.8,171.3,139.7,168.2,140.4,168.7z"/>
						<path class="st1" d="M140.9,168.8c0.8,0.2,0.9-0.6,0.9-0.9C141.8,168.5,140.6,167.9,140.9,168.8z"/>
						<path class="st1" d="M200.2,154.3c-0.1,0-0.2,0.1-0.3,0.1C200.1,154.4,200.2,154.3,200.2,154.3z"/>
						<path class="st1" d="M208,139.1l-0.5-0.5c-0.1,1.6-0.9,2.9-1.8,4.3c-0.9,1.3-1.9,2.6-2.5,4.1l-0.1-0.3
							c-0.5,0.8-1.1,1.6-1.6,2.4l-0.7,1.1l-0.3,0.5c-0.1,0.1-0.1,0.2-0.2,0.2L200,151c-0.8,0.3-1.7,0.5-2.5,0.8
							c-0.9,0.3-1.8,0.6-2.7,0.9c-3.6,1.2-7.2,2.5-11,3.6c0.1-0.1,0.1-0.3,0.2-0.4c-0.3,0.3-0.6,0.8-1.1,0.9c-0.1-0.1,0-0.3,0.2-0.4
							c-1.9-0.7-4.6,1.8-5.8,1.2c-0.4,0.2-0.5,0.7-0.2,1c-5.9,1.7-12.3,3.4-18.2,5.7c-0.3-0.1-0.5-0.4-0.5-0.7
							c-4.8,3-10.5,3.6-15.9,4.6c-0.1,0.5,0.7,0.4,0.2,1c1.9,0.2,2.9-1.9,4.6-1.4l-0.1,0.5c1.2,0,0-1.2,1.3-0.9
							c0.6,0.3,0,0.6,0.2,0.6c2.4-0.8,5-1,7-2.6c0.8,0.8,2.6-0.6,3.7,0.1c0.5-0.5,1.2-0.6,1.3-1.3c8.6-1.5,17-4.5,25.6-6.4
							c1.8-1.4,4.1-1.8,6.4-2.2c1.2-0.2,2.4-0.3,3.6-0.5c0.6-0.1,1.2-0.2,1.8-0.4c0.3-0.1,0.6-0.2,0.9-0.2l1-0.3
							c0.1,0.1,0.1,0.1,0.1,0.2c0.6-0.3,1.2-0.5,1.8-0.8c0.3-0.7,0.7-1.3,1.1-2l0.4-0.7c0.1-0.2,0.3-0.4,0.4-0.7
							c0.3-0.4,0.6-0.8,0.9-1.2l0.2-1.8c3.8-4.5,6.7-9.8,9-15.3c2.4-5.5,4.2-11.2,6.1-16.9c2-6.5,3.7-12.7,4.6-19
							c0.5-3.1,0.7-6.3,0.7-9.5c0-3.2-0.2-6.4-0.9-9.7c0.2,0,0.3-0.1,0.4,0.3c-0.4-3.8,0.2-7.3-0.4-10.8l0.2,0
							c-0.2-0.9-0.4-1.9-0.6-2.8c-0.1-0.5-0.2-0.9-0.3-1.4l-0.2-1c0.1-0.3,0.2-0.5,0.3-0.9c0.2-0.4,0.3-0.9,0.5-1.3
							c0.3-0.9,0.6-1.7,0.9-2.6c0.5-1.8,1-3.5,1.4-5.3c0.4-1.8,0.7-3.5,0.8-5.3c0.1-0.9,0.1-1.7,0.1-2.6c0-1,0-2-0.1-2.9
							c0.1-0.7,0.2-1.5,0.2-2.2l0.1-0.6l0-0.1c0-0.1-0.1,0-0.1,0l-0.3,0l-1.1,0c-0.8,0-1.5,0-2.3,0c-0.7,0-1.5,0-2.2,0
							c-2.8,0-5.7,0-8.5,0.1l-0.6,0l-0.3,0c-0.1,0-0.1,0.2-0.1,0.2l-0.4,1.1l-0.8,2.1c-0.2,0.7-0.5,1.3-0.8,1.9l-0.9,1.9
							c-1.3,2.4-2.7,4.8-4.3,7l-0.3-0.3c-2.4,3.6-5.6,6.5-9,9.1c-3.4,2.5-7,4.8-10.5,7.3c-0.9,0.4-1.7,0.9-2.6,1.4
							c-1.1,0.6-2.1,1.2-3.2,1.8c0,1.1,0,2.4,0,3.4c0.1,0.9,0.1,1.8,0.2,2.7c0.1,1.8,0.3,3.6,0.4,5.4c0.2,3.6,0.3,7.2-0.3,10.7
							c-2.1,5.5,1.7,13-0.4,18.1c-1.6,5.3-2.1,10.6-2,15.9c0.1,2.7,0.3,5.3,0.6,8c0.2,1.3,0.3,2.7,0.5,4c0.2,1.3,0.3,2.8,0.5,4.6
							l-0.1,1.1c-1.5,0-2.8,0.1-4.2,0.3c-1.2,0.1-2.4,0.2-3.6,0.4c-2.4,0.3-4.7,0.7-7.1,1.1c-4.7,0.7-9.4,1.3-14.1,0.7
							c-1.4,0.6-3,0.7-4.6,0.6c-0.8,0-1.6-0.1-2.4-0.2c-0.8-0.1-1.8-0.2-2.8-0.3c-0.3,0.8-0.7,1.7-1,2.7l-0.2,0.8l-0.2,0.6
							c-0.1,0.4-0.2,0.9-0.2,1.3l0.5-0.1c-1.7,1.5,1.2,4.4-1.1,5.1l-0.1-0.2c-1.2,0.7,2.1,2.7,0.7,3l0.5,0.3c-0.1,1.2-0.6,0-1,0.9
							c0,0.3,0.9,0.3,0.5,0.9c-2.2-0.3-0.1,2.9-2.5,2.5c0.1-0.6-1.1,0.8-1.3-0.7c-0.3,0.4-0.6,2.3,0.5,2.3c1,0.4,1.8,1.3,2.9,0.3
							l-0.7-0.4c0.9-0.2,0.4-0.2,1.1-0.3c0.4-1.5,1.6-1.5,2.3-2.5c0,0,0,0-0.1,0c-0.8-0.9,0-1.9,0.2-2.4l0.5-0.2
							c1-0.2-1.4-2.1,0-1.3c0.1-1.6,0.3-3.3,0.6-5c0.2-0.9,0.3-1.7,0.5-2.6c0.1-0.5,0.2-1,0.3-1.6c-0.3-0.3-0.2-0.6-0.2-0.9
							c0.1-0.1,0.2-0.2-0.4-0.7c0.8,0.6,1.3,1,1.7,1.2l0.1,0.1c0,0,0,0,0.2,0.1c0.2,0,0.4,0,0.6,0c0.4,0,0.7,0,1-0.1
							c0,0.1-0.1,0.3-0.2,0.2c2,1.5,2.1-1.8,4,0.1c0.1-1.5,3.2,0.2,4.1-1.7c0.2,0.3,0.4,0.6,0.3,0.9c3.2-0.3,6.7-0.1,9.4-0.3
							c2.2-1.5,5.6,0,7.4-1.9c0.8,0.1,1.9,0.3,3.1,0.3c0.3,0,0.6,0,0.9,0l0.7-0.1l0.8-0.1c1.1-0.1,2.2-0.3,3.1-0.6l-0.3,0.2
							c0.8-0.1,1.7-0.2,2.6-0.3c0-2.1,0-4.3-0.1-6.3c0-0.2,0-0.5-0.1-0.7c0-0.1,0-0.3-0.1-0.4c-0.1-0.3-0.1-0.5-0.2-0.7
							c-0.1-0.5-0.3-0.9-0.5-1.3c1.8-0.7,1.4-1.8,2-2.9c-0.7-1.8-0.4-5.2-1-7.9c0.8-0.4-0.3-2.2,0.9-2.3c-2-7.5-0.9-16.6,1.1-24.4
							l0.1,0.1c-0.6-1-2-2.3-2.7-3.3c0.1-0.1,0.3-0.1,0.3,0.1c-0.2-1.4,1-2.8,0.9-4.2c0.2,0,0.2,0,0.4,0.3c-0.5-1.4,1-2.8,0.2-4.4
							l0.3-0.1l-0.4-1c0.4,0,1,0.1,0.8,0.6c0.2-2.8,0.2-5.6,0.2-8.4c0-1.4,0-2.8,0-4.3l0-1.1l0-0.5c0-0.1,0-0.2,0-0.2l0-0.1
							c0-0.2-0.1-0.5-0.1-0.7l0.3-0.3l0.5-0.4c0.7-0.5,1.5-1,2.2-1.5c1.5-1,2.9-2.1,4.3-3.2c2.8-2.2,5.5-4.5,8.2-6.8l-0.1,0.6
							l1.4-2.2c0.1,0.1,0.1,0.3,0.1,0.4c1.4-0.9,2.5-2.2,3.5-3.5c0.5-0.7,0.9-1.3,1.4-2c0.5-0.6,1-1.3,1.5-1.9
							c0.1,0.1,0.1,0.7,0.6,0.5c0.3-1.3,1.1-1.8,1.8-2.3c0.6-0.5,1-1.1,0.4-2.2c0.1,0,0.6,0.2,0.6,0.5c0.4-0.7,0.8-1.5,1.1-2.2
							c0.3-0.8,0.7-1.5,1-2.3c0.3-0.8,0.7-1.5,1-2.3l0.6-1.6l0.2-0.6c0.1-0.1,0.4,0,0.6,0l1.6,0c1.6,0,3.2,0.1,4.8,0.2
							c1.5-0.5,2.1-0.7,3.2-0.9c0.5-0.1,1-0.1,1.6-0.1c0,0.5-0.1,1-0.1,1.5c-0.2,1.7-0.7,4.9-0.4,7.6l-0.4-0.1
							c0,2.2-0.3,4.3-0.9,6.4c-0.3,1.1-0.6,2.1-1,3.1c-0.2,0.5-0.4,1-0.6,1.5l-0.8,1.6c0.1,0.8,0.1,1.6,0.2,2.3l0.1,2.2
							c0.1,1.5,0.1,2.9,0.3,4.4c0,3,0.5,5.1,0.4,8.2l-0.5,0.1c0.9,2.6,0.4,5.3-0.2,8c-0.6,2.7-1.2,5.4-0.5,8.2l-0.6-0.4
							c0.9,1-0.8,3.2,1,3.1l-0.7,0.9c0.9,2,0.4,3.6-0.3,5.3c-0.7,1.7-1.5,3.4-1.2,5.8l-0.3-0.4c0.1,1.2,0,2.7-0.6,3.4
							c0-0.1-0.2-0.1-0.2-0.4c-2.5,3.2-1.8,7.6-3.2,11.4l-0.6-0.7c0.1,1-0.3,2.3-0.8,3.6c-0.5,1.3-1.2,2.7-1.5,3.9l-0.3-0.3l0,1.4
							l-0.7-0.3C210.1,133.2,209.4,136.2,208,139.1z"/>
						<path class="st1" d="M183,156.3C183,156.3,183,156.3,183,156.3C183.1,156.2,183.1,156.3,183,156.3z"/>
						<path class="st1" d="M140.9,163.3c-0.1,0.1-0.1,0.3-0.2,0.4C140.9,163.7,140.9,163.5,140.9,163.3z"/>
					</g>
				</g>
			</g>
		</g>
	</g>
	<g>
		<path d="M89.4,2.8c0,0-7.7,21.6,15.2,25.3c0,0-0.4-11.5,10.7-10.7V1.5C115.4,1.5,100.5-0.2,89.4,2.8z"/>
		<g>
			<g>
				<g>
					<g>
						<polygon class="st1" points="90.5,6.7 90.6,6.9 90.5,6.3 						"/>
						<path class="st1" d="M90.8,5.2c0-0.1-0.1-0.3-0.1-0.4l0.1,1.8C91.2,7.6,90.5,4.6,90.8,5.2z"/>
						<path class="st1" d="M91,5.3c0.3,0.4,0.1-0.5,0.1-0.7C91.2,5.2,90.7,4.5,91,5.3z"/>
						<path class="st1" d="M105.3,3.4C105.3,3.4,105.3,3.5,105.3,3.4C105.3,3.5,105.3,3.5,105.3,3.4z"/>
						<path class="st1" d="M109.3,0.7l0.1-0.7c-0.8,1.2-1.6-0.1-2.4,0.4l0.1-0.2c-2-0.3-3.8,0.8-5.8,1.5c0-0.1,0-0.3,0.1-0.3
							c-0.1,0.2-0.2,0.7-0.3,0.6c0-0.1,0-0.3,0-0.4c-0.5-1.1-1.2,0.8-1.5-0.1c-0.1,0.1-0.1,0.6,0,0.9c-0.7,0.2-1.5,0.4-2.3,0.7
							c-0.8,0.3-1.5,0.6-2.2,1.2C95.1,4.1,95,3.8,95,3.4c-0.5,1-1.1,1.3-1.7,1.5c-0.6,0.1-1.3,0-2,0c0.1,0.5,0.2,0.5,0.2,1
							c0.5,0.5,0.5-1.3,1-0.5l0,0.5c0.3,0.2-0.2-1.1,0.2-0.6c0.2,0.4,0.1,0.6,0.1,0.6c0.5-0.3,1.2,0,1.5-1.2c0.3,1,0.6-0.1,1,0.8
							c0.1-0.4,0.3-0.3,0.2-1c2.1,0.2,4.1-0.9,6.3-0.9c0.9-1.9,2.2,0.3,3.4-0.3c0,0.1,0,0.1,0,0.2c0.4-0.5,1-0.7,1.4-0.5l0.4-0.8
							c0.7,0.4,1.4,0.7,2.1,0.8c0.4,0.1,0.7,0.1,1.1,0.2l0.5,0.1l0.4,0c0.4,0,0.8,0,1.1,0.1c0.2,0,0.4,0.1,0.5,0.1
							c0.1,0,0.2,0,0.2,0.1c0,0.1-0.1,0.2-0.1,0.3c-0.1,0.5-0.3,0.9-0.4,1.2l-0.1,0.2l-0.1,0.1l0,0.3c-0.1,0.4-0.1,0.8-0.1,1.2
							c-0.1,1.5,0.2,3.1,1.4,4.7c-0.2,0-0.3,0-0.4-0.1c0.2,0.5,0.1,0.9,0,1.4c0,0.2-0.1,0.5-0.1,0.6c0,0.1,0,0.2,0.1,0.4l-0.2,0
							c0.4,0.3,0.6,0.8,0.7,1.2c0,0.2,0.1,0.4,0.1,0.6l0,0.3c0,0.1,0,0.2-0.1,0.2c-0.4,0-0.8,0-1.1,0.1c-0.3,0.1-0.6,0.4-1,0.9
							c-0.3,0-0.6,0.1-1,0.2c-0.3,0.1-0.7,0.2-1,0.3c-0.3,0.2-0.6,0.3-1,0.5c-0.3,0.2-0.6,0.5-0.9,0.7c-1.1,1-1.9,2.3-2.2,3.7
							l-0.3-0.2c-0.1,1.1-0.6,2.1-1.1,2.7c-0.3,0.5-0.6,0.8-0.7,1.3l0,0.2l0,0.1c0,0,0,0-0.1,0c-0.1,0-0.2,0-0.3,0
							c-0.5-0.3-0.8-0.3-1.1-0.3c-0.5,0-1.2,0.4-2.1,0.5c-1,0.1-1.9-0.1-2.5-0.9c-0.1-0.6-0.4-0.8-0.7-0.9c-0.4-0.1-0.8-0.1-1.3-0.1
							c-1,0-1.9-0.1-1.9-1.2c-0.1-2-0.6-2.9-1.6-3.7c-0.9-0.8-2.3-1.5-3.6-2.6c0-1.4-0.6-2.5-1-3.7c-0.4-1.2-0.6-2.6,0.5-3.8
							c-0.6-0.6-0.2-1.2,0.4-1.8c0.6-0.6,1.3-1.1,1.2-1.7l-0.5,0c1.5-0.2-1.8-1.4,0.4-1.2l0.1,0.1c1.1,0-2.3-1.1-1.1-1l-0.5-0.2
							c-0.1-0.3,0.6,0.1,0.9-0.1c0-0.1-0.9-0.3-0.6-0.4c2.1,0.5-0.3-0.8,2.1-0.2c0,0.1,1,0.1,1.4,0.5c0.3,0,0.3-0.4-0.7-0.7
							c-1-0.4-1.8-0.9-2.8-0.9l0.7,0.3c-0.8-0.1-0.4,0-1-0.2C87.7,3,86.6,2.7,86,2.9c0,0,0,0,0.1,0c0.9,0.5,0.2,0.6,0.1,0.7l-0.4,0
							c-0.9-0.1,1.6,0.9,0.1,0.4c0.2,0.9,0,1.9-0.1,2.9c0.6,0.2-0.1,0.7,1,0.7c-1.4,0.1-1.8,0.8-1.7,1c-0.1,0-0.3,0-0.2-0.1
							c-1.8,0.4,1.6,0.7-0.6,1.1c1.5,0.1-0.5,0.9,1.2,1.2c-0.3,0.1-0.6,0.1-0.9,0.1c0,0.9-0.5,2-0.5,2.8c0.7,0.3,0.6,0.7,0.6,1.1
							c0,0.4,0,0.8,1,0.9c-0.3,0.5-0.8,1.5,0.1,2l-0.2,0c0.3,0.7,0.8,1.6,2,1.6c-1.5,0.9-1,1.1-1.3,1.7c0.9,0.1,1.3,1.2,2.3,1.4
							c-0.6,0.6,0.7,0.3-0.2,1c1.6,0.3,2.6,0.8,3.4,1.7c0.4,0.5,0.8,0.9,1.1,1.6c0.3,0.6,0.7,1.2,0.9,1.9l-0.1,0.1
							c0.6-0.4,1.6-1.5,2.2-2c0,0.1-0.1,0.3-0.2,0.2c0.4,0,0.2,1.2,0.7,1.2c-0.1,0.2-0.1,0.2-0.2,0.3c0.6-0.3,0.3,1.2,1.1,0.5
							l-0.1,0.3l0.4-0.3c-0.1,0.4-0.4,0.9-0.5,0.7c0.4,0.2,0.7,0.4,1.1,0.5l0.7,0.2c0.3,0.1,0.6,0.2,0.9,0.2
							c1.2,0.2,2.4,0.3,3.5,0.3c0.4-0.3,0.8-0.7,1.2-0.9c0.4-0.3,0.9-0.4,0.9-0.9c0.2-0.7,0.6-1.5,1.2-2.4l0.1-0.4l0.3,0.4
							c-0.2-0.5-0.3-0.9-0.5-1.2c0.2,0.1,0.3,0.2,0.3,0.2c0.1-0.1,0.2-0.2,0.2-0.4c0-0.1,0.1-0.1,0.1-0.2l0-0.1l0-0.1
							c0-0.2,0-0.3,0-0.5c0-0.3-0.1-0.8,0.1-1c0.2,0.1,0.5,0.3,0.7,0.3c-0.4-0.4,0-0.4,0.3-0.4c0.2,0,0.3-0.1-0.5-0.8
							c0.1,0,0.5,0.3,0.6,0.4c0-1.4,1.1-2.3,2.3-2.5c0-0.6,0.2-0.9,0.4-1.1c0.3-0.2,0.5-0.3,0.9-0.4c0.4,0,0.9-0.1,1.3-0.2
							c0.2-0.1,0.4-0.2,0.5-0.3c0.2-0.1,0.3-0.2,0.3-0.4l0.3,0.4c0.3-0.3,0.6-0.5,1-0.6c0.2,0,0.1-0.3,0.1-0.4c0-0.2,0-0.4,0-0.5
							c0-0.3,0.1-0.7,0.2-1c0.1-0.7,0.3-1.6,0.2-2.3c0.2-0.8-0.3-1.3-0.3-2l0.5,0c-1.9-1.3,1.7-2.7-0.4-4.1l0.7,0.1
							c-1-0.2,0.4-0.8-1.4-0.7l0.5-0.2c-1.2-0.5-0.9-0.9-0.5-1.3c0.4-0.4,0.8-1.2,0.1-1.4l0.4-0.1c-0.3-0.2-0.6-0.3-0.2-0.8
							c0.1,0,0.2-0.1,0.3-0.1c0.4-0.5,0.6-0.9,0.7-1.3c0-0.2,0-0.3,0-0.5c0-0.1,0-0.1-0.1-0.2c0,0,0-0.1-0.2-0.1
							c-0.8,0.1-1.7,0.5-2.2,0.4l0.6-0.7c-0.6,0.4-0.9,0.4-1.3,0.3c-0.4-0.1-0.8-0.2-1.2,0l0.1-0.4c-0.2,0.2-0.3,0.3-0.4,0.5
							l0.1-0.7c-0.6-0.1-0.9,0.1-1.3,0.2C110.1,0.5,109.7,0.6,109.3,0.7z"/>
						<path class="st1" d="M101.1,1.5C101.1,1.5,101.1,1.5,101.1,1.5C101.1,1.5,101.1,1.5,101.1,1.5z"/>
						<path class="st1" d="M85.9,2.9c0.1,0,0.1-0.1,0.2-0.1C85.9,2.8,85.9,2.9,85.9,2.9z"/>
					</g>
				</g>
			</g>
		</g>
	</g>
	<g>
		<path d="M6.7,35.4c0,0,6.6-3.8,5.5-16.6l-8.9,0.2C3.3,18.9,2.5,27.9,6.7,35.4z"/>
		<g>
			<g>
				<g>
					<g>
						<polygon class="st1" points="10.2,33.4 10.4,33.3 9.8,33.6 						"/>
						<path class="st1" d="M8.8,33.8C8.7,33.9,8.6,34,8.5,34l1.6-0.7C11,32.8,8.3,34.2,8.8,33.8z"/>
						<path class="st1" d="M9,33.7c0.3-0.3-0.4,0.1-0.7,0.2C8.9,33.6,8.2,34.1,9,33.7z"/>
						<path class="st1" d="M6.4,27.8C6.4,27.8,6.4,27.8,6.4,27.8C6.5,27.8,6.4,27.8,6.4,27.8z"/>
						<path class="st1" d="M3.3,26.6l-0.7,0.1c1.2,0.2,0.1,0.8,0.7,1l-0.2,0c-0.1,1,1.2,1.6,2,2.3c-0.1,0-0.2,0-0.3,0.1
							c0.2,0,0.7-0.1,0.6,0c-0.1,0.1-0.3,0.1-0.4,0.1c-1,0.5,0.8,0.3,0.1,0.7c0.1,0,0.6-0.1,0.9-0.2c0.5,0.6,0.9,1.2,2,1.5
							c-0.1,0.1-0.4,0.2-0.8,0.3c0.9-0.1,1.3,0.1,1.4,0.3c0.1,0.2,0,0.6,0,0.9C9,33.5,9,33.4,9.5,33.2c0.4-0.4-1.2,0.2-0.5-0.3
							l0.4-0.2c0.2-0.2-1,0.5-0.6,0.1c0.3-0.2,0.5-0.2,0.5-0.3c-0.3-0.1,0-0.5-1.1-0.3C9.1,31.8,8.2,32,9,31.6
							c-0.4,0.1-0.3,0-0.9,0.2c0.1-1-1-1.6-1.2-2.5c-2,0.1,0.1-1.1-0.6-1.4c0.1,0,0.1,0,0.2,0c-0.5-0.1-0.8-0.3-0.6-0.5l-0.8,0
							c0.7-0.8,0.7-1.4,0.6-2.1c-0.1-0.6-0.3-1.3,0-1.9c0.2-0.4,0.7-0.5,0.8-0.7c0.1-0.2-0.2-0.3-1.4-2c0.2,0.2,0.3,0.3,0.4,0.4
							c-0.1-0.2,0.1-0.1,0.3-0.1c0.2,0.1,0.3,0.1,0.3-0.1L6,21c-0.3-0.8,0.2-0.7,0.6-0.7c0.4,0,0.6,0,1.1-0.8c1.1,0.2,2.1,0,3.7-0.5
							l-0.3,0.4c0.2-0.1,0.4-0.2,0.5-0.2c0.1,0,0.1,0,0.2,0c0.1,0,0.1,0,0.1,0.1c-0.1,0.3-0.2,0.7-0.3,1c-0.3,0.7-0.6,1.2-0.3,1.4
							c-0.4,0.6,0.1,0.7,0.6,1.1c0.5,0.4,0.9,1.1,0.3,1.6c-1,0.2-0.4,0.6,0,1.1c0.5,0.4,0.9,0.9-0.1,1c-1.5,0.3-1.9,0.8-1.8,1.4
							c0.1,0.6,0.8,1.5,1.3,2.4c-0.7,0.4-0.6,1-0.7,1.7c0,0.7-0.3,1.3-1.5,1.2c0.4,0.6-0.1,0.6-0.7,0.5c-0.6-0.1-1.3-0.4-1.3-0.1
							l0.3,0.3c-0.6-0.4-0.3,0-0.1,0.4c0.2,0.4,0.3,0.7-0.4-0.1l0-0.1c-0.8-0.8,1.4,2.1,0.6,1.2L8,35.7c0,0.2-0.4-0.5-0.6-0.5
							c0,0.1,0.6,0.8,0.3,0.6c-1.3-1.7,0,0.6-1.4-1.4c0,0-0.6-0.7-0.8-1.2c-0.1-0.1-0.1-0.1-0.1,0c0.1,0.1,0.2,0.3,0.5,0.8
							c0.5,1,0.9,1.8,1.5,2.5L7,35.8c0.5,0.6,0.3,0.3,0.6,0.8c0.2,0,1,0.9,1.4,1.1c0,0,0,0-0.1-0.1c-0.5-0.8,0-0.5,0.2-0.4l0.3,0.3
							c0.6,0.7-1-1.6,0-0.3c0.1-0.6,0.5-1,0.9-1.4c-0.4-0.5,0.3-0.3-0.6-0.9c1.1,0.8,1.6,0.7,1.6,0.6c0.1,0.1,0.2,0.2,0.1,0.2
							c1.5,0.8-1.1-1.2,0.8-0.2c-1.2-0.9,0.7-0.1-0.7-1.2c0.3,0.2,0.5,0.3,0.8,0.5c0.3-0.4,1-0.5,1.3-0.9c-1-0.9,0.9-0.5-0.5-1.5
							c0.5,0,1.3-0.1,0.8-0.7l0.2,0.1c0-0.4,0.2-0.9-0.8-1.5c1.7,0.5,1.4,0.2,2,0.3c-0.7-0.5-0.3-0.9-0.9-1.4
							c0.8,0.2-0.3-0.4,0.9-0.1c-1-0.8-1.2-1.4-0.9-1.9c0.2-0.5,0.9-0.9,1.8-1.4l0.1,0c-0.6-0.2-2-0.6-2.8-0.8c0.1,0,0.3,0,0.3,0.1
							c-0.2-0.2,0.9-0.2,0.8-0.5c0.2,0,0.2,0,0.4,0.1c-0.5-0.2,1-0.3,0.1-0.6l0.3,0l-0.4-0.2c0.4,0,1,0.1,0.8,0.1
							c0.1-0.2,0.1-0.4,0.1-0.7c0-0.3-0.1-0.6-0.1-1c-0.1-0.6-0.3-1.2-0.5-1.7c-0.4-1.1-0.9-1.8-0.8-3l0.4-0.2
							c-0.2,0-0.4,0.1-0.6,0.1c0.2-0.2,0.3-0.2,0.4-0.3c0.1-0.3,0.2-0.5,0.2-0.6c0,0,0-0.1,0-0.1c0,0,0,0-0.1,0
							c-0.1,0-0.2,0.1-0.3,0.1c-0.4,0.2-0.9,0.4-1.1,0.3c0.1-0.2,0.5-0.6,0.6-0.8c-0.6,0.5-0.5,0.2-0.5,0c0-0.2-0.1-0.3-0.9,0.8
							c0.1-0.1,0.4-0.6,0.5-0.8c-1.6,0.7-2.5,0.7-3.6,0.4c-0.3,0.5-0.5,0.8-0.8,0.9c-0.1,0.1-0.2,0.1-0.3,0.1c-0.1,0-0.2,0-0.2,0
							c-0.3,0-0.9,0-1.1,0.7L6.5,18c-0.4,0.7-0.7,0.7-1.3,0.5c-0.5-0.1-1.2-0.4-1.6-0.3c-0.3-0.1-0.4,0-0.5,0.1c0,0-0.1,0.1-0.1,0.1
							c0,0,0,0-0.1,0.1c0,0,0,0.1,0,0.2l-0.5-0.4c0.8,1.2,0.4,1.1,0.1,1.2c-0.4,0.1-0.8,0.4,0.2,1.2l-0.7-0.4c1,0.6-0.4,0.3,1.4,1
							c-0.2,0-0.4-0.1-0.5-0.1c1.2,0.7,0.9,0.7,0.5,0.8c-0.4,0.1-0.8,0.3-0.1,0.6L3,22.6c0.3,0.2,0.6,0.3,0.2,0.4
							c-0.1,0-0.2,0-0.3,0c-1.6,0.6,0.3,1,0.2,1.4l-0.8,0c0.9,0.1,0.1,0.6,0.6,0.9l-0.4,0l0.5,0.1l-0.7,0.1
							C2.4,25.9,3.1,26.2,3.3,26.6z"/>
						<path class="st1" d="M4.9,30.1C4.9,30.1,5,30.1,4.9,30.1C4.9,30.1,4.9,30.1,4.9,30.1z"/>
						<path class="st1" d="M9.1,37.8c0,0-0.1,0-0.1-0.1C9.1,37.8,9.1,37.8,9.1,37.8z"/>
					</g>
				</g>
			</g>
		</g>
	</g>
	<g>
		<path d="M192.2,64.2c0,0,3.1,12.8,14.5,12.8c0,0,17.8,1.8,20.7-39.2H213C213,37.8,207.3,51.7,192.2,64.2z"/>
		<g>
			<g>
				<g>
					<g>
						<polygon class="st1" points="194.7,67.3 194.9,67.4 194.6,66.8 						"/>
						<path class="st1" d="M194.6,65.5c-0.1-0.1-0.2-0.2-0.3-0.3L195,67C195.8,67.6,194,65.1,194.6,65.5z"/>
						<path class="st1" d="M194.8,65.6c0.4,0.2,0-0.5-0.2-0.8C195,65.3,194.2,64.9,194.8,65.6z"/>
						<path class="st1" d="M207.8,51.1C207.8,51.1,207.8,51.1,207.8,51.1C207.9,51.1,207.9,51.1,207.8,51.1z"/>
						<path class="st1" d="M208.3,45.3l-0.5-0.4c0.5,1.4-1.1,1.6-1.2,2.7l-0.2-0.2c-1.6,1.8-2.1,4.3-3.3,6.5c0-0.1-0.2-0.2-0.2-0.3
							c0.1,0.2,0.3,0.6,0.2,0.7c-0.1-0.1-0.2-0.2-0.2-0.3c-1.2-0.3-0.4,1.6-1.3,1.3c0,0.2,0.3,0.5,0.6,0.7c-1.1,1.7-2.4,3.3-3.2,5.3
							c-0.2,0-0.4-0.2-0.6-0.5c0,2.5-1.8,3.2-3.4,4.1c0.3,0.4,0.5,0.3,0.6,0.7c0.8,0.1,0-1.5,1-1.2l0.3,0.4c0.5,0-0.7-0.9,0-0.7
							c0.4,0.2,0.4,0.5,0.4,0.4c0.5-0.7,1.4-1,1.1-2.3c0.8,0.6,0.6-0.6,1.5-0.1c-0.1-0.4,0.1-0.5-0.3-1c2.3-1.6,3.6-4.4,5.4-6.5
							c-0.3-1.1,0.2-1.6,0.9-2.1c0.7-0.4,1.5-0.8,1.7-1.7c0.1,0,0.1,0.1,0.2,0.1c-0.1-0.7,0.2-1.4,0.7-1.8l-0.4-0.9
							c1.7-1,2.8-2.5,3.8-4.2c0.5-0.8,0.9-1.6,1.4-2.5l0.4-0.6c0.1-0.1,0.1-0.2,0.2-0.3c0.1-0.2,0.3-0.4,0.4-0.5
							c0-0.1,0.1-0.1,0.1-0.2c0.2,0,0.5,0.1,0.7,0.2l0.3,0.1l0.1,0.1c0,0,0.1,0,0.2,0.1c0.9,0.1,1.9,0.3,2.8,0.3
							c0.9,0,1.8,0,2.8-0.3c0.5-0.1,1-0.3,1.4-0.5c0.2-0.2,0.5-0.4,0.9-0.7c-0.1,0.2-0.1,0.3-0.2,0.4c0.4-0.2,0.7-0.1,0.9,0
							c0.2,0.1,0.5,0.1,0.9,0l-0.2,0.2c0.4,0,0.5,0.3,0.6,0.7c0,0.4,0,0.9-0.1,1.4l0,0.4l-0.1,0.5c0,0.3,0,0.7,0,1
							c0,0.7,0.1,1.4,0.5,2.1c-0.3,1.6-0.6,3.2-0.8,4.9c-0.3,1.7-0.5,3.4-0.7,5.1l-0.4-0.1c0.1,1.4-0.7,2.6-1.4,3.7
							c-0.7,1.2-1.5,2.2-1.8,3.5c-0.9,1.1-1.1,2.5-1.3,4c-0.1,0.4-0.1,0.8-0.2,1.1c-0.1,0.3-0.2,0.7-0.4,1c-0.3,0.6-0.7,1.2-1.4,1.6
							c-1.3,0-1.5,1.1-1.9,2.2c-0.4,1-0.9,2.2-2.1,1.8c-0.8-0.1-1.5-0.1-2.1-0.1c-0.6,0-1.1,0.2-1.6,0.3c-1,0.3-2,0.9-3,1.4l-0.1,0
							l-1.4,0.5l-0.7,0.3c-0.2,0.1-0.5,0.1-0.8,0.2c-0.4-0.2-0.8-0.4-1.1-0.5c-0.4-0.1-0.7-0.3-1.1-0.4c-0.8-0.2-1.6-0.5-2.4-0.7
							c-1.5-0.7-3-1.7-3.2-3.6c-1-0.1-1.1-1-1.1-2c0-0.5,0.1-0.9,0-1.4c0-0.4-0.1-0.8-0.3-1.1l-0.4,0.3c0.5-0.6-0.1-0.6-0.6-0.7
							c-0.5-0.1-0.9-0.2,0-0.8l0.1,0c0.9-0.7-2.6,0.3-1.5-0.3l-0.5,0.1c-0.3-0.3,0.5-0.3,0.6-0.6c-0.1-0.1-0.9,0.3-0.7,0
							c2-0.7-0.7-0.7,1.6-1.5c0.1,0.2,0.8-0.5,1.4-0.3c0.2-0.2,0-0.6-1-0.3c-1.1,0.2-2.1,0.2-2.8,0.8l0.8-0.1
							c-0.7,0.3-0.4,0.2-0.9,0.4c0,0.5-1,0.9-1.4,1.5c0,0,0,0,0.1,0c1-0.1,0.6,0.5,0.5,0.7l-0.4,0.2c-0.8,0.5,1.9-0.1,0.4,0.3
							c0.8,0.9,1.3,2,1.9,3.1c0.6-0.2,0.5,0.8,1.3,0c-1,1-0.7,2-0.5,2.2c-0.1,0.1-0.2,0.1-0.2,0.1c-0.5,0.8,0,0.7,0.4,0.7
							c0.4-0.1,0.7-0.1,0.1,0.8c1.2-0.9,0.5,1.3,2,0.3c-0.2,0.3-0.4,0.5-0.6,0.7c0.4,0.4,0.8,1,1.2,1.5c0.4,0.5,0.8,1,1.3,1.3
							c0.7-0.3,1.1,0.1,1.6,0.4c0.4,0.3,0.9,0.6,1.6-0.1c0.2,0.3,0.5,0.7,0.9,1c0.2,0.1,0.4,0.3,0.6,0.3c0.2,0,0.5,0,0.8-0.1
							l-0.1,0.2c0.5,0.1,1.1,0.1,1.6,0.1c0.5-0.1,1.1-0.4,1.4-0.9c0.2,1.7,0.6,1.4,1.1,2c0.1-0.1,0.1-0.1,0.2-0.1l-0.4,0
							c0.2-0.1,0.4-0.1,0.5-0.2c0.1-0.1,0.3-0.1,0.4-0.1c0.3-0.1,0.6-0.2,0.8-0.3c0.3-0.1,0.6-0.2,0.8-0.3c0.3-0.1,0.5-0.3,0.7-0.5
							c0.3,0.7,0.8-0.5,1.1,0.6c1.1-1.5,2.3-2.4,3.6-3.1c1.4-0.7,2.9-1.2,4.6-1.6l0,0.1c-0.2-0.7-0.9-2-1.3-2.8
							c0.1,0,0.2,0.2,0.2,0.2c0.2-0.5,1.3-0.1,1.5-0.6c0.1,0.1,0.1,0.1,0.2,0.3c-0.1-0.7,1.3-0.2,0.9-1.2l0.3,0.2l-0.1-0.5
							c0.3,0.2,0.8,0.6,0.6,0.7c1.5-1.6,2.1-3.8,2.7-5.8c0.4-2.1,0.9-4.1,1.6-6l0.3,0.3l-0.4-1c0.2,0.1,0.3,0.1,0.3,0.2
							c0.9-0.8,0.3-2.1,0.6-3c0.2,0.1,0.5,0.3,0.7,0.2c-0.8-1,1.6-0.8-0.4-1.7c0.1,0,0.6,0.1,0.7,0.2c-0.1-1.1,0-2.1,0.1-3.1
							c0.2-1,0.4-2,0.8-3c-0.8-1-0.7-1.9-0.6-2.7c0.1-0.4,0.2-0.9,0.1-1.3c0-0.4-0.2-0.9-0.5-1.4l0.4,0.1c-0.6-1.2-0.4-2.3-0.1-3.6
							c0.1-0.7,0.3-1.4,0.5-2.1l0.1-0.5l0-0.3l0-0.1c0,0-0.1,0-0.1,0c-0.3,0-0.7,0-1,0c-1-0.2-2.1,0.3-3.1,0.3l0.1-0.5
							c-1.2,0.9-1.8,0.5-2.7,0.1c-0.9-0.4-1.7-0.8-2.6,0.3l0.1-0.7c-0.3,1-1-0.4-0.9,1.4l-0.3-0.5c-0.6,1.2-1.1,0.9-1.6,0.5
							c-0.3-0.2-0.6-0.4-0.9-0.5c-0.3-0.1-0.7,0-0.9,0.4l0-0.4c-0.3,0.3-0.5,0.6-1,0.2c0-0.1-0.1-0.2,0-0.3
							c-0.3-0.2-0.6-0.4-0.8-0.4c-0.5,0.2-0.7,1-0.8,1.8c-0.1,0.7,0,1.4-0.3,1.8l-0.6-0.5c0.5,1-0.7,1.5-0.8,2.4l-0.3-0.2l0.2,0.6
							l-0.6-0.4C208.7,43.3,208.8,44.5,208.3,45.3z"/>
						<path class="st1" d="M202.9,54C202.9,54.1,202.9,54,202.9,54C202.9,54,202.9,54,202.9,54z"/>
						<path class="st1" d="M189.4,66.5c0-0.1,0.1-0.1,0.1-0.2C189.3,66.4,189.4,66.5,189.4,66.5z"/>
					</g>
				</g>
			</g>
		</g>
	</g>
	<g>
		<path d="M62.1,69.6c0,0-2.8,46.6,39.7,49.9c0,0,38.4,2.4,35-48.8l-5.5-0.1c0,0,8.5,52.5-41.4,41.1c0,0-15.9-5.5-19.6-21.1
			c0,0,11.3,18,33.3,18.9c0,0,26.3,0.9,20.7-39L62.1,69.6z"/>
		<g>
			<g>
				<g>
					<g>
						<polygon class="st1" points="62,73.6 62.2,73.9 62.7,73.2 						"/>
						<path class="st1" d="M65.3,72.3c-0.1-0.1,0-0.3-0.1-0.4l-1.9,1.7C64.1,74.6,64.7,71.6,65.3,72.3z"/>
						<path class="st1" d="M65.8,72.5c0.7,0.4,1-0.4,1.2-0.7C66.8,72.4,65.7,71.6,65.8,72.5z"/>
						<path class="st1" d="M122.5,77c0-0.1,0-0.2-0.1-0.2C122.4,76.9,122.4,76.9,122.5,77z"/>
						<path class="st1" d="M123.7,93.6l0.6,0.4c0-0.9,0-1.7,0.2-2.5c0.1-0.8,0.3-1.7,0.5-2.5c0.2-0.8,0.3-1.7,0.5-2.6
							c0.1-0.9,0.1-1.7,0.1-2.6l0.2,0.2c0.1-1.1,0.1-2.1,0.1-3.2c0-1.1-0.1-2.1-0.1-3.1c-0.1-1-0.2-2.1-0.4-3.1
							c-0.1-0.5-0.2-1.1-0.3-1.7l-0.3-1.6l-0.2-0.8l-0.1-0.4l0,0l-0.1,0l-0.1,0l-0.2,0l-1.7,0.1c-1,0.1-2.1,0.1-3.1,0.2
							c-2,0.1-4.1,0.3-6.2,0.4c0.1-0.1,0.2-0.3,0.3-0.3c-0.4,0.2-0.9,0.6-1.3,0.6c-0.1-0.1,0.1-0.3,0.3-0.4
							c-1.8-1.1-5.2,0.6-6.3-0.2c-0.5,0.1-0.7,0.6-0.5,0.9c-6.6,0.2-13.6,0.3-20.3,1c-0.3-0.2-0.4-0.5-0.3-0.8
							c-5.7,1.7-11.7,0.9-17.5,0.5c-0.2,0.5,0.6,0.5,0,1c1.9,0.6,3.5-1.1,5.1-0.2l-0.2,0.4c1.2,0.3,0.3-1.1,1.5-0.5
							c0.5,0.4-0.1,0.6,0.1,0.6c2.6-0.1,5.4,0.3,7.9-0.8c0.6,1,2.8,0.1,3.8,1c0.7-0.4,1.4-0.3,1.6-0.9c9.2,0.7,18.6-0.1,28.1,0.1
							c1.1-0.5,2.3-0.7,3.5-0.7c0.3,0,0.6,0,0.9,0c0.3,0,0.7,0,0.8,0c0.4,0,0.7,0.1,1,0.2l0.5,0.1l0.2,0.1c0.1,0,0,0.2,0,0.3
							c0,0.4,0,0.7-0.1,1.1c0,0.2,0,0.3,0,0.5l0,0.7c0,0.6,0.1,1.3,0.3,1.9c-0.1,0-0.1,0-0.2,0c0.6,1.6,0.9,4.1,0.5,6
							c0.3,0.6,0.5,1.1,0.7,1.7c-1.2,5.9-2.9,11.6-6.5,16c-1.8,2.2-4,3.9-6.6,5.1c-1.3,0.6-2.6,1-4,1.2c-0.7,0.1-1.4,0.2-2.1,0.2
							c-0.3,0-0.7,0-0.9,0l-1-0.2c-0.8-0.1-1.6-0.2-2.4-0.3c-0.8-0.1-1.5-0.3-2.3-0.5c-1.5-0.3-2.9-0.9-4.4-1.3
							c-2.8-1.1-5.5-2.4-7.9-4c-2.5-1.6-4.8-3.3-7.1-5.2l-1.7-1.5c-0.5-0.5-1.1-1-1.7-1.5c-1.1-1-2.3-2.1-3.3-3.2l-3.6,1.5
							c0.3,0.6,0.6,1.2,0.9,1.8c-0.2,0-0.2,0.2-0.4-0.2c0.2,0.5,0.4,1,0.6,1.5c0.2,0.5,0.4,1,0.6,1.4c0.2,0.5,0.4,1,0.6,1.4
							c0.2,0.5,0.5,0.9,0.7,1.4c0.4,0.9,1,1.8,1.5,2.6c0.5,0.9,1.2,1.6,1.9,2.3l-0.2,0.1c3.8,3.3,7.8,6.3,12.3,8.5
							c0.6,0.3,1.1,0.5,1.7,0.8l0.4,0.2c0.2,0.1,0.4,0.1,0.6,0.2l1,0.2c1.2,0.2,2.4,0.4,3.6,0.6c2.4,0.2,4.8,0.4,7.1,0
							c2.8,0.2,5.6,0,8.5-0.4c2.9-0.5,5.8-1.5,8.4-3c2.7-1.5,5-3.6,6.8-5.9c1.8-2.4,3.2-5.1,4.1-7.8l0.3,0.2c1.3-4.3,2.3-8.6,3-12.9
							c0.3-2.2,0.6-4.4,0.6-6.6c0-2.5,0-3.6-0.3-5.4l0-0.1l0,0l0,0l0.1,0c0,0.1,0.6,0.1,1,0.1c0.4,0,0.8,0.1,1.2,0.1l0.6,0
							c0.1,0,0.1,0,0.1,0.1l0,0.2l0,0.3c0,0.4,0.1,0.9,0.1,1.3l0.2,1.4l0.2,1.8c0.1,1.2,0.3,2.4,0.3,3.6c0.3,4.9,0,9.9-2,14.3
							c-1.7,2.6-2.5,5.8-3.8,8.9c-1.3,3.1-3.2,6.2-6,7.3c-5.2,2.7-10.1,4.7-15.4,6.2c-1.3,0.4-2.6,0.7-4,1c-1.3,0.3-2.7,0.5-4.1,0.6
							c-2.8,0.1-5.7,0.1-8.6-0.2l-1.9-0.7c-0.6-0.3-1.2-0.5-1.9-0.7c-1.3-0.4-2.5-1-3.7-1.5c-2.4-1.1-4.8-2.3-7-3.9
							c-1.1-0.7-2.1-1.6-3.1-2.5c-0.5-0.5-0.9-0.9-1.4-1.4l-0.7-0.7l-0.6-0.8c-1.7-2.1-2.9-4.4-3.7-6.9c-1.8-1.8-2.5-4.4-2.9-7
							c-0.4-2.6-0.5-5.3-1.2-7.9L64,84.9c0.5-1.1-0.2-2-0.8-2.9c-0.6-0.9-1-1.8,0-2.5l0.1,0.2c0.9-1.1-2.8-2.1-1.6-2.8l-0.5-0.1
							c-0.3-1.2,0.6-0.2,0.7-1.2c-0.1-0.4-1-0.1-0.7-0.9c2.1-0.3-0.6-3.1,1.9-3.2c0,0.7,0.9-1,1.5,0.4c0.2-0.4,0.2-2.4-0.9-2.2
							c-1.1-0.2-2-1.1-2.9,0.1l0.8,0.3c-0.8,0.4-0.4,0.3-1,0.5c-0.1,1.7-1.3,1.9-1.7,3.2c0,0,0,0,0.1,0c1,0.8,0.5,2,0.4,2.7L59,76.8
							c-0.9,0.5,2,1.8,0.4,1.4c0.7,3.4,1.4,7.4,2.5,11.1c0.7,0.4,0.8,2.9,1.7,1.7c-1,1.3-0.3,4.2,0.2,5.2c-0.1,0-0.3,0-0.3-0.2
							c-0.4,1.3,0.3,1.8,0.8,2.2c0.6,0.4,1.1,0.8,0.6,2.2c0.7-0.2,1,0.7,1.5,1.6c0.5,0.9,1,1.9,2.1,1.9c-0.1,0.4-0.3,0.6-0.6,0.7
							c2,3.1,4.4,6.5,6.8,8.6c0.7,0.2,1.4,0.5,2,1c0.3,0.2,0.6,0.5,0.9,0.7l1,0.7c0.6,0.5,1.3,0.9,1.9,1.2c0.7,0.3,1.4,0.4,2.1,0.3
							c1.4,1.3,4.1,3.2,6.8,3.3l-0.3,0.1c0.7,0.2,1.5,0.4,2.3,0.6c0.8,0.2,1.6,0.3,2.3,0.4c1.5,0.1,3,0.1,4-0.3
							c0.6,1.8,1.9,1.6,3.1,2.3c1.3-0.2,2.8-0.5,4.5-0.7c1.6-0.3,3.4-0.7,4.8-1.4c0.6,0.7,2.3-0.9,2.8,0.1c3.8-2.3,7.9-4.6,11.7-7.5
							c3.9-2.9,7.4-6.4,10.4-10.1l0,0.2c0-1.4-0.6-3.2-1-4.6c0.1-0.1,0.3,0,0.2,0.2c0.2-0.8,0.7-1.4,1.2-2c0.5-0.6,0.9-1.3,1.1-2.1
							c0.2,0.1,0.2,0.1,0.3,0.4c0-1.6,1.7-2.8,1.3-4.7l0.3,0l-0.2-1.2c0.4,0.1,0.9,0.3,0.7,0.8c1-4.3,1.3-8.8,1.1-13.2l-0.1-1.7
							l0-0.8l-0.1-1.2c-0.1-1.7-0.3-3.3-0.4-5l0-0.6l0-0.3c0-0.1,0-0.3-0.1-0.2l-1.4,0l-2.6,0.1l-2.7,0.1l-2.2,0l-1.1,0
							c-0.3,0-0.8,0-0.8,0.1c0.4,2,0.7,4,0.9,5.8l0.1,1.3l0.1,0.9c0.1,0.6,0.1,1.2,0.1,1.8c0.1,2.4,0,4.8-0.3,7.1l-0.3-0.5
							c0.1,0.8,0.3,1.7,0.3,2.6c-0.2,0-0.3-0.2-0.3-0.3c-0.3,0.8-0.4,1.5-0.6,2.3c-0.1,0.8-0.2,1.6-0.4,2.4
							c-0.1,0.8-0.2,1.6-0.4,2.4c-0.2,0.8-0.4,1.5-0.7,2.2c-0.2-0.1-0.3-0.6-0.7-0.3c0.1,1.3-0.7,1.9-1.1,2.5
							c-0.5,0.6-0.9,1-0.2,2.1c-0.1,0-0.6-0.2-0.6-0.4c-1.3,2.8-3.3,5.3-5.8,7c-2.5,1.8-5.6,2.9-8.7,3.3c-0.3,0.2-0.6,0.4-0.9,0.5
							c-0.3,0.1-0.6,0.3-1,0.4c-0.7,0.2-1.3,0.4-2,0.6c-0.7,0.1-1.4,0.1-2.1,0.2c-0.7,0-1.4,0.1-2.2,0c-1.5-0.1-2.9-0.1-4.4-0.3
							c-1.5-0.1-2.9-0.1-4.4,0l0.1-0.4c-0.9,0-1.9-0.1-2.8-0.2c-0.8-0.2-1.8-0.6-2.6-0.9c-1.7-0.8-3.4-1.8-4.9-3
							c-3.1-2.4-5.7-5.3-7.9-8.4c-0.2-0.3-0.4-0.7-0.6-1c-0.2-0.3-0.3-0.6-0.5-0.9c-0.3-0.6-0.8-1.1-1-1.7c-0.3-0.6-0.6-1.2-0.9-1.8
							c-0.3-0.6-0.5-1.4-0.7-2.1l0.4-0.2c-0.1-0.2-0.3-0.4-0.4-0.6L69.7,91c2.1,1.9,3.5,4.2,5.3,6.5c0.9,1.1,1.8,2.2,2.9,3.1
							c1.1,0.9,2.3,1.7,3.8,2l-0.7,0.3c0.7-0.2,1.3,0.4,1.9,0.8c0.6,0.4,1.2,0.6,1.5-0.3l0.6,1c1.1,0,2,0.2,2.9,0.6
							c0.8,0.4,1.6,0.9,2.4,1.4c0.8,0.5,1.6,1.1,2.6,1.4c1,0.3,2.1,0.6,3.3,0.5l-0.4,0.3c1.3-0.1,2.8-0.1,3.7,0.5
							c-0.2,0-0.1,0.2-0.4,0.2c0.9,0.6,2,0.8,3,1c0.5,0.1,1,0.1,1.6,0.1c0.6,0,1.1-0.1,1.7-0.2c2.2-0.5,4.2-1.5,6.1-2.3l-0.1,0.9
							c0.8-0.8,2.1-1.5,3.4-2.3c1.3-0.8,2.7-1.8,3.5-3l0.1,0.4c0.2-0.4,0.4-0.9,0.6-1.4l0.6,0.5c1.2-1.4,2.1-2.9,2.7-4.6
							C122.8,96.9,123.2,95.3,123.7,93.6z"/>
						<path class="st1" d="M112.4,70.8C112.4,70.8,112.4,70.8,112.4,70.8C112.5,70.7,112.5,70.7,112.4,70.8z"/>
						<path class="st1" d="M58.8,74.3c0-0.2,0.1-0.3,0.1-0.5C58.7,73.8,58.8,74.1,58.8,74.3z"/>
					</g>
				</g>
			</g>
		</g>
	</g>
	<g>
		<path d="M39.9,175h38.8c0,0,1.5-22.9-33.7-19.2C45.1,155.8,34.7,158.7,39.9,175z"/>
		<g>
			<g>
				<g>
					<g>
						<polygon class="st1" points="43.7,173.8 43.9,173.7 43.3,173.7 						"/>
						<path class="st1" d="M42.2,173.4c-0.1,0.1-0.3,0.1-0.4,0.2l1.8-0.1C44.5,173,41.6,173.8,42.2,173.4z"/>
						<path class="st1" d="M42.3,173.3c0.4-0.3-0.5-0.1-0.8-0.1C42.2,173,41.5,173.5,42.3,173.3z"/>
						<path class="st1" d="M43.4,159.7C43.3,159.7,43.3,159.7,43.4,159.7C43.4,159.7,43.4,159.7,43.4,159.7z"/>
						<path class="st1" d="M45.3,155.3l0-0.7c-0.4,0.6-0.8,0.8-1.3,0.9c-0.5,0.1-1,0.2-1.2,0.7l-0.1-0.2c-1.1,0.6-1.8,1.6-2.2,2.7
							c-0.2,0.5-0.3,1.1-0.5,1.6c-0.1,0.5-0.1,1.1-0.2,1.6c-0.1-0.1-0.2-0.1-0.3-0.2c0.2,0.2,0.6,0.4,0.5,0.5
							c-0.1,0-0.3-0.1-0.3-0.2c-0.6,0-0.5,0.4-0.4,0.8c0.1,0.4,0.3,0.7-0.2,0.7c0.1,0.2,0.5,0.3,0.9,0.3c0,0.4,0,0.8,0,1.2
							c0,0.4,0.1,0.8,0.2,1.2c0.1,0.8,0.5,1.6,1,2.4c-0.1,0.1-0.4,0.1-0.8,0.2c2,1.1,1.5,2.6,1.6,4c0.5-0.1,0.4-0.3,0.9-0.3
							c0.5-0.6-1.3-0.5-0.6-1.1l0.5-0.1c0.2-0.3-1.1,0.2-0.6-0.2c0.3-0.2,0.6-0.1,0.6-0.2c-0.3-0.6,0-1.2-1.2-1.6
							c0.9-0.3-0.1-0.7,0.9-1c-0.4-0.1-0.3-0.3-1-0.3c0.1-1.1,0.1-2.1,0-3.1c0-1,0-2.1,0.4-2.9c-0.3-0.4-0.4-0.7-0.4-1
							c0.1-0.3,0.3-0.4,0.5-0.6c0.2-0.2,0.6-0.3,0.8-0.4c0.2-0.2,0.4-0.3,0.5-0.6c0.1,0,0.1,0.1,0.1,0.1c-0.1-0.6,0.2-1.1,0.7-1.2
							c-0.1-0.3-0.1-0.6-0.1-0.9c0.4,0,0.8,0,1.1-0.1c0.2,0,0.5,0,0.7,0.1c0.1,0,0.3,0,0.5,0l0.6,0c0.4,0,0.8,0,1.2-0.1
							c1.6-0.1,3.2-0.3,4.8,0.1c0.9,0.1,1.7,0.3,2.6,0.5c0.8,0.2,1.6,0.4,2.4,0.6c1.6,0.3,3.1,0.3,5.1-0.5c-0.1,0.2-0.1,0.3-0.2,0.3
							c1-0.1,1.7,0.8,2.7,0.8l-0.1,0.2c0.7-0.2,1.3-0.1,1.9,0.1c0.6,0.2,1.1,0.5,1.6,0.8c0.5,0.3,1,0.7,1.5,0.9
							c0.5,0.3,1.1,0.4,1.8,0.5c2,1.9,3.9,4.4,5.4,7l-0.4,0.1c0.8,1,0.8,2.2,0.5,3.1c-0.1,0.4-0.3,0.8-0.3,1.1
							c0,0.2-0.1,0.4-0.1,0.6c-0.1,0.1-0.4,0.1-0.5,0.1c-0.7-0.2-1-0.2-1.4,0c-0.4,0.1-0.8,0.4-1.4,0.7c-1.2,0.5-2.6,1-3.8,0.4
							c-1.6-1.9-3.6,2.1-5.1,0.2c-3-2.9-5.9-1-8.9,0.7c-2.8-1-5.5,1.6-8.2-0.5c-1.3,1.3-2.7-1.7-4.1-1.3l0.1,0.5
							c-0.5-1.4-1.1,2-1.4-0.1l0.1-0.1c-0.3-1.1-0.6,2.5-0.8,1.2l0,0.5c-0.3,0.2,0-0.6-0.3-0.8c-0.1,0.1,0,1-0.2,0.7
							c0-2.2-0.8,0.5-0.8-2c0.2,0-0.3-0.9,0.1-1.5c-0.1-0.2-0.7-0.1-0.6,0.9c0,1.1-0.3,2,0.1,2.9l0.1-0.8c0.1,0.8,0.1,0.4,0.1,1
							c0.4,0.1,0.5,1.3,0.8,1.7c0,0,0,0,0-0.1c0.2-1,0.5-0.4,0.7-0.3l0.1,0.4c0.1,0.9,0.5-1.8,0.4-0.2c0.9-0.4,1.9-0.4,2.9-0.4
							c0.1-0.6,0.8,0.1,0.5-1.1c0.2,1.3,1,1.7,1.3,1.6c0,0.1,0,0.3-0.1,0.2c0.5,1.7,0.6-1.6,1.1,0.5c0.1-1.5,0.9,0.5,1.2-1.3
							c0.1,0.3,0.1,0.6,0.1,0.9c0.9,0,1.9,0.6,2.6,0.6c0.6-1.3,1.6,0.6,2.1-1.2c0.5,0.4,1.2,1.1,1.8,0.4l-0.1,0.2
							c0.7-0.1,1.6-0.2,2.1-1.3c0.2,1.7,0.5,1.4,0.8,1.9c0.5-0.8,1.5-0.6,2.2-1.3c0.1,0.8,0.6-0.3,0.6,0.8c2.1-2.2,4.6-1.5,6.8,0.2
							l0,0.1c0.3-0.6,0.6-2,0.9-2.9c0,0.1,0,0.3,0,0.3c0.4-0.2,0.8,0.9,1.2,0.7c0,0.2,0,0.2-0.1,0.4c0.4-0.5,0.8,0.9,1.2,0l0,0.3
							l0.3-0.4c0,0.4,0,1-0.2,0.8c0.4,0,0.9,0.1,1.3,0c0.2,0,0.4,0,0.7,0c0.2,0,0.4,0,0.8-0.1c0.8-0.1,1.5-0.1,2.2-0.2
							c0.7-0.1,1.4-0.2,2-0.4l1.6-0.5l0.8-0.2c0-0.3,0-0.7-0.1-1l-0.3-3.8l0.4,0.3c-0.3-0.4-0.5-0.8-0.8-1.1c0.2,0,0.3,0.1,0.4,0.1
							c0.2-0.6,0-1.3-0.4-1.9c-0.4-0.7-0.7-1-0.8-1.5c0.2-0.1,0.6,0,0.7-0.2c-1.2-0.3,0.8-1.6-1.3-1.1c0.1-0.1,0.5-0.3,0.7-0.3
							c-1.5-1.5-2.5-3.2-3.5-4.9c-1.3,0-1.9-0.5-2.5-1c-0.3-0.3-0.6-0.6-1-0.7c-0.4-0.2-0.8-0.3-1.4-0.2l0.2-0.3
							c-1.2,0-2.1-0.5-3-1.1c-0.4-0.3-0.9-0.6-1.3-0.9c-0.5-0.3-1-0.5-1.5-0.6c-0.8-0.4-1.5-0.1-2.3-0.4l0.1-0.5
							c-1,0.7-1.6,0.1-2.3-0.4c-0.7-0.5-1.4-1-2.3-0.1l0.2-0.6c-0.4,1-0.9-0.5-1,1.3l-0.2-0.6c-0.6,1.1-1,0.8-1.5,0.4
							c-0.5-0.4-1-0.9-1.6-0.2l0.1-0.4c-0.3,0.3-0.7,0.5-1,0.2c0-0.1,0-0.2,0.1-0.3c-1-1.6-2.2,0.1-3.3,0.1l0.1-0.8
							c-0.5,0.9-1.5,0.1-2.2,0.6l0-0.4l-0.3,0.5l-0.1-0.7C47,154.4,46.3,155.1,45.3,155.3z"/>
						<path class="st1" d="M39.6,162.1C39.6,162.1,39.6,162.1,39.6,162.1C39.5,162.1,39.5,162.1,39.6,162.1z"/>
						<path class="st1" d="M41.1,178.4c0,0-0.1-0.1-0.1-0.1C41,178.4,41,178.3,41.1,178.4z"/>
					</g>
				</g>
			</g>
		</g>
	</g>
	<g>
		<path d="M140.5,175h69.3c0,0,6.1-12.2-9-23.3c0,0-15.9-7.4-40.3,0C160.5,151.7,137.5,158,140.5,175z"/>
		<g>
			<g>
				<g>
					<g>
						<polygon class="st1" points="144.5,174.3 144.7,174.2 144,174.1 						"/>
						<path class="st1" d="M142.9,173.4c-0.1,0-0.3,0-0.4,0.1c0.6,0.2,1.2,0.3,1.9,0.4C145.4,173.5,142.3,173.7,142.9,173.4z"/>
						<path class="st1" d="M143.1,173.2c0.4-0.3-0.4-0.3-0.7-0.4C143,172.8,142.2,173.3,143.1,173.2z"/>
						<path class="st1" d="M157.2,155.4C157.2,155.4,157.2,155.4,157.2,155.4C157.2,155.5,157.3,155.5,157.2,155.4z"/>
						<path class="st1" d="M163,150.5l-0.1-0.7c-1,1.5-2.8,0.7-4,1.7l0-0.3c-3.6,1-6.2,3.5-8.9,5.8c0-0.1-0.1-0.3-0.1-0.4
							c0,0.3,0.1,0.7-0.1,0.8c-0.1-0.1-0.1-0.3-0.1-0.4c-0.6-0.2-1,0.2-1.3,0.7c-0.3,0.5-0.5,1-1,0.8c-0.1,0.2,0.1,0.6,0.5,0.8
							c-1.9,1.9-3.6,4.3-3.9,6.9c-0.2,0-0.5-0.1-0.8-0.3c0.4,1.4,0.3,2.4,0.1,3.4c-0.2,1-0.5,2-0.6,3.1c0.5,0.1,0.5-0.2,1,0
							c0.3-0.3,0-0.6-0.3-0.9c-0.2-0.3-0.4-0.6,0-0.9l0.4,0.1c0.3-0.4-1.1-0.2-0.5-0.6c0.4-0.1,0.6,0.1,0.6,0
							c-0.1-0.9,0.6-1.6-0.2-2.8c1,0.2,0.4-0.9,1.4-0.8c-0.2-0.4,0-0.5-0.6-0.9c1-1.3,2-2.7,3.1-4c1.2-1.3,2.5-2.7,4.1-3.6
							c0.2-1.3,1.2-1.7,2.2-2c1-0.3,2.2-0.3,3-1c0,0.1,0.1,0.1,0.1,0.2c0.4-0.7,1.3-1.3,2.2-1.3l0.4-1c5.3,0.1,10.2-2.2,15.5-2
							c0.7,0,1.5,0,2.2,0c0.7,0,1.4,0.1,2.1,0.1c1.4,0.1,2.7,0.3,4.1,0.3c2.7,0.2,5.3,0.1,8.3-0.6c0,0.2,0,0.3-0.2,0.3
							c1.7-0.1,3,0.9,4.6,0.9l-0.1,0.2c1-0.1,2,0,2.9,0.3c0.1,0,0.2,0.1,0.3,0.1l0.3,0.1c0.2,0,0.3,0.1,0.5,0.3l1.1,0.9
							c0.4,0.3,0.8,0.6,1.1,0.9c0.3,0.3,0.7,0.7,1.1,1c0.4,0.3,0.8,0.6,1.2,0.8c0.4,0.3,0.8,0.5,1.3,0.8c2.8,3.6,4.8,8.5,4.6,13.4
							l-0.4-0.1c0.1,1-0.1,1.9-0.4,2.7c-0.1,0.2-0.2,0.4-0.3,0.6c-0.1,0.2-0.2,0.4-0.5,0.3c-0.5-0.1-0.9-0.1-1.4-0.2l-1.2-0.2
							c-0.5-0.1-1-0.1-1.5-0.2c-1-0.1-2-0.1-2.9,0c-4.1-0.9-8.3,2.2-12.4,1c-2.5-1.9-5.9,2.1-8.2,0.2c-4.9-2.9-9.6-1-14.5,0.7
							c-4.5-1-9,1.6-13.4-0.5c-2.1,1.3-4.4-1.7-6.7-1.3l0.1,0.5c-0.8-1.4-1.8,2-2.4-0.1l0.1-0.1c-0.4-1.1-1,2.5-1.3,1.2l-0.1,0.5
							c-0.5,0.2-0.1-0.6-0.5-0.8c-0.2,0.1-0.1,1-0.4,0.7c-0.1-2.2-1.3,0.5-1.3-2c0.3,0-0.5-0.9,0.2-1.5c-0.2-0.2-1.1-0.1-1,0.9
							c-0.1,1.1-0.4,2,0.1,2.9l0.1-0.8c0.2,0.8,0.1,0.4,0.2,1c0.7,0.1,0.8,1.3,1.3,1.7c0,0,0,0,0-0.1c0.3-1,0.8-0.4,1.1-0.3l0.1,0.4
							c0.2,0.9,0.8-1.8,0.6-0.2c1.4-0.4,3.1-0.4,4.7-0.4c0.2-0.6,1.2,0.1,0.9-1.1c0.4,1.3,1.6,1.7,2,1.6c0,0.1,0,0.3-0.1,0.2
							c0.9,1.7,1-1.6,1.8,0.5c0.1-1.5,1.5,0.5,1.9-1.3c0.1,0.3,0.1,0.6,0.1,0.9c1.4,0,3,0.6,4.3,0.6c1-1.3,2.5,0.6,3.4-1.2
							c0.7,0.4,2,1.1,3,0.4l-0.1,0.2c1.2-0.1,2.6-0.2,3.4-1.3c0.3,1.7,0.9,1.4,1.4,1.9c0.8-0.8,2.4-0.6,3.6-1.3c0.2,0.8,1-0.3,1,0.8
							c3.4-2.2,7.5-1.5,11.1,0.2l-0.1,0.1c0.5-0.6,1-2,1.5-2.9c0,0.1,0,0.3-0.1,0.3c0.7-0.2,1.3,0.9,1.9,0.7c0,0.2,0,0.2-0.1,0.4
							c0.6-0.5,1.3,0.9,2,0l0,0.3l0.5-0.4c0,0.4,0,1-0.3,0.8c2.8,0.2,5.7-0.2,8.5-0.6c1.4-0.2,2.9-0.4,4.3-0.6l1.1-0.1l0.5,0l0.6,0
							c1.1,0,2.1,0,3.1-0.1c0,0.1-0.1,0.2-0.1,0.4l0.6-0.4l0.3-0.2l0.1-0.1c0,0,0-0.2,0-0.2c0.1,0.2,0.2,0.3,0.2,0.5
							c0.7-0.6,1-1.8,1.2-2.8c0-0.5,0.1-1.1,0.1-1.6c0-0.3,0-0.5,0.1-0.7c0-0.2,0-0.4,0.1-0.6c0.2,0,0.5,0.3,0.8,0.1
							c-0.4-0.6-0.1-1.1,0.1-1.5c0.2-0.4,0.3-0.7-0.8-1c0.1-0.1,0.6-0.1,0.8,0c-0.8-3.3-1.6-6.3-2.8-9.3c-0.7-0.4-1.3-0.8-1.8-1.3
							c-0.5-0.5-0.8-1-1.3-1.5c-0.4-0.5-0.8-1.1-1.3-1.5c-0.5-0.4-1.1-0.7-1.9-0.9l0.3-0.3c-0.4-0.2-0.8-0.4-1.2-0.6
							c-0.4-0.2-0.7-0.4-1.1-0.6c-0.3-0.2-0.7-0.5-1-0.8l-0.5-0.4c-0.2-0.2-0.4-0.2-0.6-0.3c-1.5-0.8-3.1-1.6-4.8-1.8
							c-1.3-0.5-2.4-0.2-3.7-0.4l0-0.5c-1.3,0.7-2.5,0.1-3.7-0.4c-1.2-0.6-2.5-1-3.8,0l0.2-0.7c-0.4,1-1.5-0.4-1.4,1.4l-0.4-0.5
							c-0.9,1.2-1.6,0.9-2.4,0.5c-0.8-0.3-1.7-0.8-2.7,0l0.1-0.4c-0.5,0.3-1.1,0.6-1.6,0.3c0.1-0.1,0-0.2,0.1-0.3
							c-1.9-1.5-3.6,0.5-5.3,0.8l0.1-0.8c-0.7,1-2.4,0.4-3.5,1.1l0-0.4l-0.5,0.6l-0.2-0.7c-0.7,0.1-1.4,0.4-2.1,0.7
							C164.4,149.9,163.7,150.3,163,150.5z"/>
						<path class="st1" d="M149.7,157.2C149.7,157.2,149.8,157.2,149.7,157.2C149.8,157.1,149.8,157.1,149.7,157.2z"/>
						<path class="st1" d="M142.4,178.4c-0.1,0-0.1-0.1-0.2-0.1C142.2,178.4,142.4,178.3,142.4,178.4z"/>
					</g>
				</g>
			</g>
		</g>
	</g>
	<g>
		<circle cx="68.7" cy="28.4" r="5.1"/>
		<g>
			<g>
				<g>
					<g>
						<polygon class="st1" points="77.8,28.4 78,28.4 77.4,28.3 						"/>
						<path class="st1" d="M76.4,28c-0.1,0-0.3,0-0.4,0c0.6,0,1.2,0.1,1.8,0.2C78.7,28.1,75.7,28.1,76.4,28z"/>
						<path class="st1" d="M76.5,28c0.4-0.1-0.4-0.1-0.7-0.1C76.5,27.9,75.6,28,76.5,28z"/>
						<path class="st1" d="M72.2,21.9C72.2,21.9,72.3,21.8,72.2,21.9C72.3,21.8,72.3,21.8,72.2,21.9z"/>
						<path class="st1" d="M69.7,23.9l-0.2,0.6c0.2-0.6,0.4-0.5,0.4-0.4c0.1,0.1,0.1,0.3,0.3,0.1l-0.1,0.2c0.2,0.2,0.5,0.1,0.9,0
							c0.4-0.1,0.9-0.2,1.4-0.1c-0.1,0.1-0.2,0.2-0.3,0.2c0.2-0.1,0.5-0.4,0.5-0.4c-0.1,0.1-0.2,0.2-0.3,0.3
							c-0.7,0.9,0.8-0.1,0.3,0.5c0.1,0,0.5-0.3,0.7-0.6c0.6,0.3,1.2,0.8,2.3,1.2c-0.1,0.1-0.4,0.2-0.8,0.3c1,0,1.3,0.3,1.4,0.6
							c0.1,0.4-0.1,0.8-0.2,1.1c0.5,0,0.5-0.1,1-0.1c0.6-0.3-1.2-0.3-0.4-0.6l0.5,0c0.3-0.2-1.1,0.2-0.6-0.1
							c0.4-0.1,0.6-0.1,0.6-0.1c-0.2-0.3,0-0.8-1.1-0.8c0.9-0.4-0.1-0.3,0.7-0.8c-0.4,0.1-0.3-0.1-0.9,0.2c0-0.6-0.4-1.1-0.9-1.5
							c-0.5-0.4-1-0.7-1.4-1c-0.8,0.5-0.9,0.3-1,0c-0.1-0.4-0.1-0.9-0.6-0.8c0-0.1,0.1-0.1,0.1-0.2c-0.4,0.3-0.7,0.4-0.8,0.1
							c-0.2,0.2-0.3,0.5-0.5,0.7c-0.3-1-1-1.3-1.7-1.4c-0.7-0.1-1.4,0.1-2.1-0.1c-0.8-0.1-1.8-0.2-2.6,0.2c-0.8,0.3-1.3,1.2-0.9,2.6
							c-0.1-0.1-0.2-0.2-0.3-0.3c0,0.6-0.8,0.5-0.7,1.1l-0.2-0.1c0.4,0.8,0.2,1.2,0,1.7c-0.2,0.4-0.3,1,0.5,1.5
							c-0.3,1,0.1,2.2,1,2.8l-0.3,0.2c0.5,0.2,0.4,0.6,0.4,1.2c0,0.5,0.1,1.1,0.6,1.2c0.1,0.6,0.9,0.5,1.5,0.2
							c0.6-0.3,1.1-0.6,1.3,0.1c0,1,0.5,0.5,0.8,0c0.3-0.5,0.5-1,0.7-0.1c0.5,1.4,1.3,1.5,1.7,1.1c0.4-0.5,0.5-1.6,0.3-2.5
							c0.6,0.2,0.7-0.4,0.7-0.8c0-0.4,0-0.7,1.1-0.5c-0.5-0.5-0.1-0.4,0.5-0.4c0.6,0,1.3-0.1,1.2-0.4l-0.5-0.1
							c0.7,0.1,0.3-0.1-0.1-0.3c-0.4-0.2-0.7-0.3,0.3-0.2l0.1,0c1.1,0-2.5-0.5-1.2-0.4l-0.5-0.1c-0.1-0.1,0.6,0.1,0.8,0
							c-0.1,0-1-0.1-0.7-0.1c2.2,0.1-0.5-0.2,2-0.1c0,0.1,0.9-0.1,1.4,0.1c0.3,0,0.1-0.3-0.9-0.3c-1.1,0-2-0.1-2.9,0l0.8,0
							c-0.8,0-0.4,0-1,0c-0.1,0.1-1.3,0.1-1.8,0.1c0,0,0,0,0.1,0c1,0.1,0.4,0.1,0.2,0.1l-0.4,0c-0.9-0.1,1.8,0.3,0.2,0.1
							c0.4,0.2,0.3,0.3,0.3,0.4c0.6,0.2-0.1,0.1,1,0.4c-1.3-0.4-1.6-0.4-1.6-0.4c-0.1-0.1-0.2-0.1-0.2-0.1c-1.6-0.7,1.4,0.7-0.5-0.1
							c1.3,0.7-0.4-0.2,1.1,0.7c-0.3-0.2-0.5-0.3-0.8-0.5c-0.1,0.1-0.6-0.2-0.6-0.2c0.5,0.4,0.3,0.4,0.3,0.3c-0.1,0-0.1-0.1,0.5,0.6
							c-0.3-0.2-0.8-0.8-0.4-0.2l-0.1-0.2c0,0.1,0,0.2,0.5,1.3c-0.9-1.5-0.7-1.2-1-1.7c0.3,0.7,0.2,0.6,0.3,1.3
							c-0.3-0.8,0,0.4-0.3-0.8c0.2,1.1,0.1,1.5-0.1,1.4c-0.2-0.1-0.4-0.7-0.4-1.6l0-0.1c-0.1,0.6-0.3,2-0.5,2.8c0-0.1,0-0.3,0.1-0.3
							c-0.1,0.2,0-0.9-0.1-0.7c0-0.2,0-0.2,0.1-0.4c-0.2,0.5,0.1-0.9-0.2-0.1l0.1-0.3l-0.2,0.4c0.1-0.4,0.3-0.9,0.3-0.8
							c-0.1-0.2-0.4,0.1-0.9,0.3c-0.4,0.2-1,0.2-1.1-0.1l0.3-0.2c-0.2,0.1-0.4,0.2-0.6,0.3c0.2-0.1,0.2-0.2,0.3-0.2
							c0.5-0.5-0.5,0-0.5-0.3c0.2-0.1,0.5-0.2,0.7-0.3c-1,0.3,1.2-0.6-0.8,0.1c0.1,0,0.5-0.2,0.7-0.3c-0.8,0-0.8-0.5-0.5-0.8
							c-1-0.1-1-0.3-1-0.5c0-0.2,0.1-0.3-0.6-0.7l0.4,0.1c-0.6-0.4-0.5-0.7-0.2-0.9c0.3-0.2,0.7-0.3,0.7-0.6c0.3-0.1,0-0.5,0.1-0.7
							l0.4,0.3c-0.6-0.8-0.1-0.7,0.3-0.5c0.4,0.2,0.7,0.4,0.3-0.6l0.3,0.6c-0.5-0.9,0.4,0.2-0.5-1.3l0.3,0.4
							c-0.4-1.1-0.1-0.9,0.2-0.7c0.3,0.3,0.6,0.7,0.5-0.1l0.1,0.4c0-0.3,0-0.6,0.2-0.3c0,0.1,0,0.2,0,0.3c0.4,0.8,0.4,0.7,0.5,0.4
							c0.1-0.3,0.2-0.7,0.4-0.7l0,0.8c0.1-0.9,0.4-0.1,0.6-0.5l0,0.4l0.1-0.5l-0.1,0.7C69.1,24.5,69.5,23.9,69.7,23.9z"/>
						<path class="st1" d="M72.5,24.5L72.5,24.5C72.5,24.6,72.5,24.6,72.5,24.5z"/>
						<path class="st1" d="M70.3,28.6c0.1,0,0.1,0,0.1,0C70.3,28.5,70.4,28.6,70.3,28.6z"/>
					</g>
				</g>
			</g>
		</g>
	</g>
</g>
</svg>
