<?xml version="1.0" encoding="utf-8"?>
<!-- Generator: Adobe Illustrator 27.9.0, SVG Export Plug-In . SVG Version: 6.00 Build 0)  -->
<svg version="1.1" id="Camada_1" xmlns="http://www.w3.org/2000/svg" xmlns:xlink="http://www.w3.org/1999/xlink" x="0px" y="0px"
	 viewBox="0 0 1922.3 729.2" style="enable-background:new 0 0 1922.3 729.2;" xml:space="preserve">
<style type="text/css">
	.st0{fill:#C2E6F0;}
</style>
<g id="Camada_3">
</g>
<g id="Camada_2_00000076605784071351491420000015022848372631067799_">
	<g>
		<path class="st0" d="M0,718.1c4.6,0,7.3,1.8,10.5,3.9c2.5,1.6,6.8,3.4,11.1,3.4c4.6,0,9-1.2,12.1-3.6l0,0c3-2.2,7-3.6,11.4-3.6
			c4.6,0,8.6,1.8,11.8,3.9c2.5,1.6,6.8,3.4,11.1,3.4c4.6,0,9-1.2,12.1-3.6l0,0c3-2.2,7-3.6,11.4-3.6c4.6,0,8.6,1.8,11.8,3.9
			c2.5,1.6,6.8,3.4,11.1,3.4c4.6,0,9-1.2,12.1-3.6l0,0c3-2.2,7-3.6,11.4-3.6c4.6,0,8.6,1.8,11.8,3.9c2.5,1.6,6.8,3.4,11.1,3.4
			c4.6,0,9-1.2,12.1-3.6l0,0c3-2.2,7-3.6,11.4-3.6c4.6,0,8.6,1.8,11.8,3.9c2.5,1.6,6.8,3.4,11.1,3.4c4.6,0,9-1.2,12.1-3.6l0,0
			c3-2.2,7-3.6,11.4-3.6c4.6,0,8.6,1.8,11.8,3.9c2.5,1.6,6.8,3.4,11.1,3.4c4.6,0,9-1.2,12.1-3.6l0,0c3-2.2,7-3.6,11.4-3.6
			c4.6,0,8.6,1.8,11.8,3.9c2.5,1.6,6.8,3.4,11.1,3.4c4.6,0,9-1.2,12.1-3.6l0,0c3-2.2,7-3.6,11.4-3.6c4.6,0,8.6,1.8,11.8,3.9
			c2.5,1.6,6.8,3.4,11.1,3.4c4.6,0,9-1.2,12.1-3.6l0,0c3-2.2,7-3.6,11.4-3.6c4.6,0,8.6,1.8,11.8,3.9c2.5,1.6,6.8,3.4,11.1,3.4
			c4.6,0,9-1.2,12.1-3.6l0,0c3-2.2,7-3.6,11.4-3.6c4.6,0,8.6,1.8,11.8,3.9c2.5,1.6,6.8,3.4,11.1,3.4c4.6,0,9-1.2,12.1-3.6l0,0
			c3-2.2,7-3.6,11.4-3.6c4.6,0,8.6,1.8,11.8,3.9c2.5,1.6,6.8,3.4,11.1,3.4c4.6,0,9-1.2,12.1-3.6l0,0c3-2.2,7-3.6,11.4-3.6
			c4.6,0,8.6,1.8,11.8,3.9c2.5,1.6,6.8,3.4,11.1,3.4c4.6,0,9-1.2,12.1-3.6l0,0c3-2.2,7-3.6,11.4-3.6c4.6,0,8.6,1.8,11.8,3.9
			c2.5,1.6,6.8,3.4,11.1,3.4c4.6,0,9-1.2,12.1-3.6l0,0c3-2.2,7-3.6,11.4-3.6c4.6,0,8.6,1.8,11.8,3.9c2.5,1.6,6.8,3.4,11.1,3.4
			c4.6,0,9-1.2,12.1-3.6l0,0c3-2.2,7-3.6,11.4-3.6c4.6,0,8.6,1.8,11.8,3.9c2.5,1.6,6.8,3.4,11.1,3.4c4.6,0,9-1.2,12.1-3.6l0,0
			c3-2.2,7-3.6,11.4-3.6c4.6,0,8.6,1.8,11.8,3.9c2.5,1.6,6.8,3.4,11.1,3.4c4.6,0,9-1.3,12.1-3.8l0,0c3-2.2,7-3.5,11.4-3.5
			c4.6,0,8.6,1.8,11.8,3.9c2.5,1.6,6.8,3.4,11.1,3.4c4.6,0,9-1.2,12.1-3.6l0,0c3-2.2,7-3.6,11.4-3.6c4.6,0,8.6,1.8,11.8,3.9
			c2.5,1.6,6.8,3.4,11.1,3.4c4.6,0,9-1.2,12.1-3.6l0,0c3-2.2,7-3.6,11.4-3.6c4.6,0,8.6,1.8,11.8,3.9c2.5,1.6,6.8,3.4,11.1,3.4
			c4.6,0,9-1.2,12.1-3.6l0,0c3-2.2,7-3.6,11.4-3.6c4.6,0,8.6,1.8,11.8,3.9c2.5,1.6,6.8,3.4,11.1,3.4c4.6,0,9-1.2,12.1-3.6l0,0
			c3-2.2,7-3.6,11.4-3.6c4.6,0,8.6,1.8,11.8,3.9c2.5,1.6,6.8,3.4,11.1,3.4c4.6,0,9-1.2,12.1-3.6l0,0c3-2.2,7-3.6,11.4-3.6
			c4.6,0,8.6,1.8,11.8,3.9c2.5,1.6,6.8,3.4,11.1,3.4c4.6,0,9-1.2,12.1-3.6l0,0c3-2.2,7-3.6,11.4-3.6c4.6,0,8.6,1.8,11.8,3.9
			c2.5,1.6,6.8,3.4,11.1,3.4c4.6,0,9-1.2,12.1-3.6l0,0c3-2.2,7-3.6,11.4-3.6c4.6,0,8.6,1.8,11.8,3.9c2.5,1.6,6.8,3.4,11.1,3.4
			c4.6,0,9-1.2,12.1-3.6l0,0c3-2.2,7-3.6,11.4-3.6c4.6,0,8.6,1.8,11.8,3.9c2.5,1.6,6.8,3.4,11.1,3.4c4.6,0,9-1.2,12.1-3.6l0,0
			c3-2.2,7-3.6,11.4-3.6c4.6,0,8.6,1.8,11.8,3.9c2.5,1.6,6.8,3.4,11.1,3.4c4.6,0,9-1.2,12.1-3.6l0,0c3-2.2,7-3.6,11.4-3.6
			c4.6,0,8.6,1.8,11.8,3.9c2.5,1.6,6.8,3.4,11.1,3.4c4.6,0,9-1.2,12.1-3.6l0,0c3-2.2,7-3.6,11.4-3.6c4.6,0,8.6,1.8,11.8,3.9
			c2.5,1.6,6.8,3.4,11.1,3.4c4.6,0,9-1.2,12.1-3.6l0,0c3-2.2,7-3.6,11.4-3.6c4.6,0,8.6,1.8,11.8,3.9c2.5,1.6,6.8,3.4,11.1,3.4
			c4.6,0,9-1.2,12.1-3.6l0,0c3-2.2,7-3.6,11.4-3.6c4.6,0,8.6,1.8,11.8,3.9c2.5,1.6,6.8,3.4,11.1,3.4c4.6,0,9-1.2,12.1-3.6l0,0
			c3-2.2,7-3.6,11.4-3.6c4.6,0,8.6,1.8,11.8,3.9c2.5,1.6,6.8,3.4,11.1,3.4c4.6,0,9-1.2,12.1-3.6l0,0c3-2.2,7-3.6,11.4-3.6
			c4.6,0,8.6,1.8,11.8,3.9c2.5,1.6,6.8,3.4,11.1,3.4c4.6,0,9-1.2,12.1-3.6l0,0c3-2.2,7-3.6,11.4-3.6c4.6,0,8.6,1.8,11.8,3.9
			c2.5,1.6,6.8,3.4,11.1,3.4c4.6,0,9-1.2,12.1-3.6l0,0c3-2.2,7-3.6,11.4-3.6c4.6,0,8.6,1.8,11.8,3.9c2.5,1.6,6.8,3.4,11.1,3.4
			c4.6,0,9-1.2,12.1-3.6l0,0c3-2.2,7-3.6,11.4-3.6c4.6,0,8.6,1.8,11.8,3.9c2.5,1.6,6.8,3.4,11.1,3.4c4.6,0,9-1.2,12.1-3.6l0,0
			c3-2.2,7-3.6,11.4-3.6c4.6,0,8.6,1.8,11.8,3.9c2.5,1.6,6.8,3.4,11.1,3.4c4.6,0,9-1.2,12.1-3.6l0,0c3-2.2,7-3.6,11.4-3.6
			c4.6,0,8.6,1.8,11.8,3.9c2.5,1.6,6.8,3.4,11.1,3.4c4.6,0,9-1.2,12.1-3.6l0,0c3-2.2,7-3.6,11.4-3.6c4.6,0,8.6,1.8,11.8,3.9
			c2.5,1.6,6.8,3.4,11.1,3.4c4.6,0,9-1.2,12.1-3.6l0,0c3-2.2,7-3.6,11.4-3.6c4.6,0,8.6,1.8,11.8,3.9c2.5,1.6,6.8,3.4,11.1,3.4
			c4.6,0,9-1.2,12.1-3.6l0,0c3-2.2,7-3.6,11.4-3.6c4.6,0,8.6,1.8,11.8,3.9c2.5,1.6,6.8,3.4,11.1,3.4c4.6,0,9-1.2,12.1-3.6l0,0
			c3-2.2,7-3.6,11.4-3.6c4.6,0,8.6,1.8,11.8,3.9c2.5,1.6,6.8,3.4,11.1,3.4c4.6,0,9-1.2,12.1-3.6l0,0c3-2.2,7-3.6,11.4-3.6
			c4.6,0,8.6,1.8,11.8,3.9c2.3,1.5,5.4,3,9.3,3.2V0H0V718.1z"/>
		<path d="M1922.3,720.8c-1.9-0.3-4.4-1.5-6.1-2.4c-0.5-0.3-1-0.6-1.5-0.9h-0.1l0,0c-5.4-2.8-11-4.3-17.1-3.2
			c-3.3,0.6-5.9,1.8-8.8,3.3c-7.3,3.6-11.9,4.2-19.8,0.2c-5.8-2.9-11.2-4.6-17.8-3.5c-3.9,0.7-6.7,2.3-10.1,4
			c-6.9,3.5-11.8,2.9-18.6-0.5c-6-3-11.7-4.7-18.4-3.4c-3.6,0.7-6.3,2.3-9.4,3.9c-7.6,3.9-12.7,2.2-19.8-1.3
			c-5.5-2.7-11.1-3.9-17.1-2.6c-3.6,0.7-6.2,2.3-9.4,3.9c-7.4,3.8-12.7,2.2-19.8-1.3c-5.5-2.7-11.1-3.9-17.1-2.6
			c-4.1,0.8-6.8,2.7-10.4,4.5c-7.1,3.7-12.3,1.3-18.8-1.9c-6-2.9-12.1-4-18.7-2.3c-3.5,0.9-5.8,2.6-8.9,4.2
			c-7.5,3.9-12.4,0.9-19.3-2.2c-6-2.6-11.8-3.7-18.2-2c-3.9,1-6.4,3.2-9.9,4.8c-7,3.1-12.2,0-18.3-2.8c-6.3-2.9-12.9-3.8-19.7-1.6
			c-3.2,1-5.5,3.1-8.4,4.5c-7,3.1-12.6-0.1-18.8-3c-6-2.9-12.8-3.5-19.2-1.4c-3.2,1-5.5,3.1-8.4,4.5c-7.1,3.2-12.6-0.1-18.8-3
			c-6-2.9-12.8-3.5-19.2-1.4c-3.2,1-5.5,3.1-8.4,4.5c-7.4,3.3-12.5,0-18.8-3c-6.5-3.1-13.8-3.5-20.6-0.8c-3.3,1.3-6,3.6-9.4,4.6
			c-6.7,2-10.8-1.1-16.4-3.7c-6.6-3.1-13.8-3.5-20.6-0.8c-4.1,1.6-7.3,4.8-11.9,5.3c-5.9,0.6-10.3-2.9-15.4-5.1
			c-6.6-2.8-14-2.6-20.5,0.4c-3.7,1.7-6.1,4.2-10.5,4.7c-6.5,0.7-11.1-3.6-16.8-5.7c-6.2-2.2-13.1-1.7-19.1,1
			c-3.5,1.6-6.4,4.3-10.5,4.7c-6.9,0.8-11-3.6-16.8-5.7c-6.2-2.2-13.1-1.8-19.1,1c-3.5,1.6-6.4,4.3-10.5,4.7
			c-6.9,0.8-11-3.6-16.8-5.7c-6.4-2.3-13.6-1.7-19.7,1.2c-4.7,2.3-7.3,4.6-13.1,4.1c-5.3-0.5-8.8-3.6-13.5-5.3
			c-6.4-2.3-13.6-1.7-19.7,1.2c-5.7,2.7-9.2,6-16.4,3.8c-4.2-1.3-7.5-4.2-11.8-5.4c-6.3-1.8-13-1.1-18.8,1.9
			c-5.5,2.8-8.9,5.6-15.8,3.5c-4.8-1.5-8.3-4.8-13.4-5.9c-5.8-1.3-12-0.4-17.2,2.3s-9.5,5.4-15.8,3.5c-4.8-1.4-8.4-4.8-13.4-5.9
			c-5.7-1.3-12-0.4-17.2,2.3s-9.5,5.4-15.8,3.5c-4.8-1.4-8.4-4.8-13.4-5.9c-6.7-1.5-12.5,0.2-18.4,3.1c-6,2.8-9.5,4.7-16.6,1.9
			c-4-1.6-7.1-4-11.4-5c-6.6-1.4-12.5,0.2-18.4,3.1c-6.6,3.2-11.1,4.8-18.5,1c-3.4-1.7-6.2-3.4-10-4.2c-7.1-1.4-12.9,0.8-19.1,4
			c-11.5,5.9-17.2-2.3-27.9-4.1c-6.9-1.1-12.5,1.1-18.5,4.1c-11.8,6-17.1-2.3-27.9-4.1c-6.9-1.1-12.6,1.1-18.5,4.1
			s-11.1,3.4-17.3,0.2c-3.5-1.8-6.6-3.7-10.6-4.3c-6.8-1.1-12.6,0.9-18.5,4c-7,3.6-11.6,3.2-18.6-0.3c-3-1.5-5.9-3-9.3-3.6
			c-7.5-1.2-13.1,1.5-19.5,4.7c-10.9,5.6-18.1-3.9-28.5-4.9c-7.7-0.8-12.3,2.6-18.9,5.5c-10.3,4.6-17.8-4.5-27.5-5.5
			c-7.7-0.8-12.3,2.6-18.9,5.5c-10.5,4.7-18.9-5.4-29.2-5.7c-7-0.2-11.3,3.1-17.2,5.7c-10.6,4.7-18.8-5.3-29.2-5.7
			c-7-0.2-11.2,3-17.2,5.7c-10.7,4.8-18.8-5.3-29.2-5.7c-7.9-0.3-12.6,4.3-19.6,6.4c-9.8,2.9-17.6-6.3-27.4-6.4
			c-8.4,0-13.6,6.3-21.4,7.1c-8.9,1-16-7-25-7.1c-8.5,0-13.6,6.3-21.4,7.1c-9.1,1-16.3-7.3-25.6-7.1c-8,0.2-13.3,6.3-20.8,7.1
			c-9.1,1-16.3-7.3-25.6-7.1c-8.1,0.2-13.3,6.3-20.8,7.1c-9.2,1-16.2-7.3-25.6-7.1c-8.9,0.2-15.4,7.6-24,6.8s-14.6-7.4-24-6.6
			c-9.3,0.8-16.1,9.2-25.7,6.3c-7.5-2.3-12.3-6.9-20.7-6.3c-9.3,0.7-16,9.3-25.7,6.3c-8-2.4-13.2-7.5-22.3-6.2
			c-8.7,1.2-14.8,8.9-24.1,6.2c-8.1-2.4-13.1-7.5-22.3-6.2c-8.7,1.2-14.7,9-24.1,6.2c-5.9-1.7-9.5-6-16-6.4c-0.7,0-2.4,0.1-3,0.3
			v7.5c5.8,0.9,11.5,5.6,17.4,6.7c6,1.1,12.2,0,17.6-2.7c2-1,3.8-2.7,5.9-3.4c6.6-2.2,9.4,0.5,14.5,3c2.8,1.3,5.3,2.5,8.4,3.1
			c6.6,1.2,12.8-0.3,18.7-3.3c7.3-3.8,12-3.4,19.4,0.2c2.8,1.3,5.3,2.5,8.4,3.1c6.6,1.2,12.8-0.3,18.7-3.3c7.3-3.8,12-3.3,19.4,0.2
			c2.9,1.4,5.7,2.7,8.9,3.2c6.4,1,12.4-0.5,18.1-3.5c8-4.2,12.6-2.9,20.5,0.8c2.5,1.2,5.1,2.2,7.8,2.6c7,1.1,13-0.8,19.1-4.1
			c11.1-6,17.1,2.5,27.3,4.1c7,1.1,13.1-0.8,19.1-4.1c11.1-6,17.1,2.5,27.3,4.1c7,1.1,13.1-0.8,19.1-4.1c11.1-6,17.1,2.5,27.3,4.1
			c7,1.1,13-0.8,19.1-4.1c10.9-5.9,17.2,2.5,27.3,4.1c7,1.1,13-0.8,19.1-4.1c10.7-5.8,17.2,2.5,27.3,4.1c7,1.1,13-0.8,19.1-4.1
			c11.1-6,18.2,3.2,28.9,4.2c6.5,0.6,11.9-1.2,17.5-4.3c11-5.9,18.3,3.2,28.9,4.2c7.8,0.8,12.7-2.3,19.5-5.3
			c10.1-4.5,17.3,4.3,26.9,5.3c7.8,0.8,12.7-2.3,19.5-5.3c10.3-4.6,18.4,5,28.5,5.5c7.2,0.3,11.7-2.7,17.9-5.5
			c10.3-4.6,18.4,5,28.5,5.5c7.2,0.3,11.7-2.7,17.9-5.5c10.1-4.6,18.4,5,28.5,5.5c2.6,0.1,5.4-0.2,7.9-0.9c4.3-1.1,7.8-4.8,11.9-5.8
			c9.4-2.2,17.2,6.2,26.6,6.6c2.6,0.1,5.4-0.2,7.9-0.8c4.3-1.1,7.8-4.7,11.9-5.7c9.4-2.3,17.2,6.1,26.6,6.5c2.6,0.1,5.4-0.2,7.9-0.8
			c4.3-1.1,7.8-4.7,11.9-5.7c9.4-2.3,17.2,6.1,26.6,6.5c8.3,0.4,12.5-4.1,19.8-6.5c8.9-2.9,17.6,6.1,26.6,6.5
			c8.4,0.4,12.5-4.1,19.8-6.5c9.1-3,17.9,6.4,27.2,6.5c8,0.1,12.1-4.2,19.2-6.5c9.1-3,17.9,6.4,27.2,6.5c8,0.1,12.1-4.2,19.2-6.5
			c8.9-2.9,18,6.4,27.2,6.5c8.9,0.1,15.4-6.6,23.7-6.4c8.1,0.1,14.3,6.3,22.7,6.4c8.9,0.1,15.4-6.6,23.7-6.4
			c8.3,0.1,14.6,6.6,23.4,6.4c8.6-0.1,15-6.6,23-6.5c8.3,0.1,14.7,6.6,23.4,6.4c9.7-0.1,18-9.3,27.5-6.4c6.8,2.1,11.3,6.5,18.9,6.4
			c9.6-0.1,18.1-9.3,27.5-6.4c6.8,2.1,11.3,6.5,18.9,6.4c9.6-0.1,18.2-9.3,27.5-6.4c6.8,2.1,11.3,6.5,18.9,6.4
			c9.6-0.1,18.2-9.3,27.5-6.4c6.8,2.2,11.2,6.5,18.9,6.4c9.9-0.1,17.7-8.7,27.5-6.4c6.9,1.6,11.1,6.5,18.9,6.4
			c9.9-0.1,17.7-8.7,27.5-6.4c7.4,1.8,11.9,6.8,20.2,6.3c9.4-0.5,16.6-8.6,26.2-6.3c7.5,1.8,11.9,6.8,20.2,6.3
			c10.6-0.6,17.3-9.7,28.4-5.2c6.2,2.6,11,5.6,18,5.2c10.6-0.6,17.3-9.7,28.4-5.2c6.7,2.8,11.8,5.9,19.4,5.1
			c10.2-1.1,16.1-9.6,27-5.1c6.7,2.7,11.9,5.9,19.4,5.1c2.6-0.3,5.2-0.9,7.6-1.9c8-3.4,12.1-6.8,21.6-2c5.6,2.8,10.9,4.7,17.2,4
			c2.6-0.3,5.2-0.9,7.6-1.9c1.7-0.7,2.8-1.5,4.3-2.3c5.9-3.2,11.3-2.7,17.3,0.3c5.6,2.8,10.9,4.7,17.2,4c2.6-0.3,5.2-0.9,7.6-1.9
			c1.7-0.7,2.8-1.5,4.3-2.3c5.9-3.2,11.3-2.7,17.3,0.3c5.5,2.8,10.9,4.7,17.2,4c2.6-0.3,5.2-0.9,7.6-1.9c1.7-0.7,2.8-1.5,4.3-2.3
			c6-3.2,11.3-2.7,17.3,0.3c5.6,2.8,10.9,4.7,17.2,4c2.6-0.3,5.2-0.9,7.6-1.9c2.2-0.9,4-2.4,6.2-3.4c5.6-2.5,10.3-1.2,15.3,1.3
			c5.6,2.8,10.9,4.7,17.2,4c11-1.2,17.4-10.9,29.2-4c0.3,0.2,0.5,0.3,0.8,0.4c4,2.1,12.1,2.8,12.1,2.8v-7.3L1922.3,720.8
			L1922.3,720.8z"/>
	</g>
</g>
</svg>
