<?xml version="1.0" encoding="utf-8"?>
<!-- Generator: Adobe Illustrator 27.9.0, SVG Export Plug-In . SVG Version: 6.00 Build 0)  -->
<svg version="1.1" id="Camada_1" xmlns="http://www.w3.org/2000/svg" xmlns:xlink="http://www.w3.org/1999/xlink" x="0px" y="0px"
	 viewBox="0 0 119.4 81.8" style="enable-background:new 0 0 119.4 81.8;" xml:space="preserve">
<style type="text/css">
	.st0{fill:#FFFFFF;}
</style>
<g>
	<g>
		<g>
			<path class="st0" d="M89.6,10.3c-3.9,0-7.5,0.8-11,2.1C75.2,5.1,67.8,0,59.1,0c-8.2,0-15.3,4.6-19,11.2c-2.9-1.5-6.1-2.3-9.5-2.3
				c-10.4,0-19,7.6-20.6,17.5C4,30.1,0,36.7,0,44.3c0,11.5,9.4,20.9,20.9,20.9c3.6,0,6.9-0.9,9.8-2.5c0.9,10.7,9.9,19.1,20.8,19.1
				c10.5,0,19.1-7.7,20.6-17.7c4.9,3.6,11,5.8,17.6,5.8c16.4,0,29.7-13.3,29.7-29.7S106.1,10.3,89.6,10.3z"/>
		</g>
	</g>
</g>
</svg>
