<?xml version="1.0" encoding="utf-8"?>
<!-- Generator: Adobe Illustrator 27.9.0, SVG Export Plug-In . SVG Version: 6.00 Build 0)  -->
<svg version="1.1" id="Camada_1" xmlns="http://www.w3.org/2000/svg" xmlns:xlink="http://www.w3.org/1999/xlink" x="0px" y="0px"
	 viewBox="0 0 162.2 111.6" style="enable-background:new 0 0 162.2 111.6;" xml:space="preserve">
<style type="text/css">
	.st0{fill:#FFFFFF;}
</style>
<g>
	<g>
		<g>
			<path class="st0" d="M162.2,51.2c0-15.3-12.4-27.7-27.7-27.7c-5.3,0-10.3,1.5-14.5,4.1C119.9,12.3,107.5,0,92.2,0
				C77.1,0,64.8,12.1,64.5,27.2c-6.7-6.1-15.7-9.8-25.7-9.8C17.3,17.4,0,34.8,0,56.2S17.4,95,38.8,95c4.9,0,9.6-0.9,13.9-2.6
				c3.6,11.1,14,19.2,26.4,19.2c11,0,20.5-6.4,25-15.7c4.5,3.2,10,5.1,15.9,5.1c14.5,0,26.4-11.1,27.6-25.3
				C156.3,70.9,162.2,61.8,162.2,51.2z"/>
		</g>
	</g>
</g>
</svg>
