<?xml version="1.0" encoding="utf-8"?>
<!-- Generator: Adobe Illustrator 27.9.0, SVG Export Plug-In . SVG Version: 6.00 Build 0)  -->
<svg version="1.1" id="Camada_1" xmlns="http://www.w3.org/2000/svg" xmlns:xlink="http://www.w3.org/1999/xlink" x="0px" y="0px"
	 viewBox="0 0 125.7 84" style="enable-background:new 0 0 125.7 84;" xml:space="preserve">
<style type="text/css">
	.st0{fill:#FFFFFF;}
</style>
<g>
	<g>
		<g>
			<path class="st0" d="M22.1,62c3.9,1.3,7.9,1.8,11.8,1.5c1.1,8.6,7,16.2,15.9,19.1c8.4,2.7,17.1,0.4,23.1-5.2
				c2.4,2.5,5.4,4.4,8.9,5.5c10.5,3.4,21.8-1.5,26.7-11c7.3-1.8,13.6-7.2,16.1-14.8c3.8-11.7-2.7-24.2-14.3-28.1
				c-3.7-1.2-7.3-1.3-10.8-0.7C102,17.1,95.7,5.6,84.6,2C74-1.4,62.6,3.5,57.8,13.2c-3.8-5.3-9.3-9.5-16-11.7
				C25-3.9,7.1,5.3,1.6,21.9S5.4,56.6,22.1,62z"/>
		</g>
	</g>
</g>
</svg>
