<?xml version="1.0" encoding="utf-8"?>
<!-- Generator: Adobe Illustrator 27.9.0, SVG Export Plug-In . SVG Version: 6.00 Build 0)  -->
<svg version="1.1" id="Camada_1" xmlns="http://www.w3.org/2000/svg" xmlns:xlink="http://www.w3.org/1999/xlink" x="0px" y="0px"
	 viewBox="0 0 178.5 103.8" style="enable-background:new 0 0 178.5 103.8;" xml:space="preserve">
<style type="text/css">
	.st0{fill:#FFFFFF;}
</style>
<g>
	<g>
		<g>
			<path class="st0" d="M26.8,75.9c1.8,0,3.6-0.2,5.3-0.5c2.3,16.1,16.2,28.4,32.8,28.4c15.2,0,28.1-10.3,31.9-24.3
				c3.2,13.3,15.1,23.3,29.4,23.3c15.7,0,28.5-11.9,30-27.1c12.6-2.2,22.3-13.2,22.3-26.4c0-14.4-11.5-26.2-25.8-26.7
				c-4.2-9.2-13.5-15.8-24.4-15.8c-8.7,0-16.5,4.3-21.3,10.8C100.5,7,89.1,0,75.8,0c-16.7,0-30.7,11.2-35,26.5
				c-4.1-2.5-9-4.1-14.1-4.1C12,22.5,0,34.5,0,49.2C0.1,64,12.1,75.9,26.8,75.9z"/>
		</g>
	</g>
</g>
</svg>
